<?xml version="1.0" standalone="no"?><!DOCTYPE svg PUBLIC "-//W3C//DTD SVG 1.1//EN" "http://www.w3.org/Graphics/SVG/1.1/DTD/svg11.dtd"><svg t="1579426947320" class="icon" viewBox="0 0 1024 1024" version="1.1" xmlns="http://www.w3.org/2000/svg" p-id="2914" xmlns:xlink="http://www.w3.org/1999/xlink" width="16" height="16"><defs><style type="text/css"></style></defs><path d="M874.613734 115.916458h-29.94152v735.600067c0 48.867769-39.779449 88.646149-88.647218 88.646148H211.409056v27.268171c0 31.225798 25.343358 56.568087 56.568087 56.568087h606.529657c31.224728 0 56.567018-25.342289 56.567018-56.568087V172.484545c0.001069-31.224728-25.235355-56.568087-56.460084-56.568087z" fill="" p-id="2915"></path><path d="M452.652164 908.082473h303.264828c31.224728 0 56.568087-25.342289 56.568087-56.565948V56.568087c0-31.224728-25.343358-56.568087-56.568087-56.568087H351.8134v18.71345c0.212799 1.924812 0.320802 3.956558 0.320802 5.988304V179.649123c0 43.949875-35.715957 79.665831-79.665831 79.665831H117.521003c-1.60401 0-3.314954-0.106934-4.918965-0.213868H92.926182v592.415439c0 31.223659 25.343358 56.565948 56.568087 56.565948h303.157895zM464.094102 715.816207H266.373133c-14.756892 0-26.7335-11.977678-26.733501-26.7335 0-14.757962 11.976608-26.7335 26.733501-26.733501h197.827903c14.756892 0 26.7335 11.975539 26.7335 26.733501 0 14.755823-12.083542 26.7335-26.840434 26.7335z m197.827903-136.446717H266.373133c-14.756892 0-26.7335-11.977678-26.733501-26.7335 0-14.757962 11.976608-26.7335 26.733501-26.7335H661.922005c14.756892 0 26.7335 11.975539 26.7335 26.7335 0 14.755823-11.976608 26.7335-26.7335 26.7335zM266.373133 381.005848H661.922005c14.756892 0 26.7335 11.976608 26.7335 26.7335s-11.976608 26.7335-26.7335 26.733501H266.373133c-14.756892 0-26.7335-11.976608-26.733501-26.733501s11.976608-26.7335 26.733501-26.7335z" fill="" p-id="2916"></path><path d="M117.521003 227.234754h155.375104c25.878028-0.213868 46.837093-21.172932 47.050961-47.050961V24.701754c0-14.329156-11.76274-23.846282-23.952147-23.846282-5.88137 0-11.76274 2.13868-16.681705 7.057644L100.62543 186.599833c-14.97076 14.97076-4.384294 40.634921 16.895573 40.634921z" fill="" p-id="2917"></path></svg>