<?xml version="1.0" standalone="no"?><!DOCTYPE svg PUBLIC "-//W3C//DTD SVG 1.1//EN" "http://www.w3.org/Graphics/SVG/1.1/DTD/svg11.dtd"><svg t="1578975631432" class="icon" viewBox="0 0 1027 1024" version="1.1" xmlns="http://www.w3.org/2000/svg" p-id="1782" xmlns:xlink="http://www.w3.org/1999/xlink" width="16.046875" height="16"><defs><style type="text/css"></style></defs><path d="M508.233996 15.887848H395.164137l-1.854926 0.403244H380.969918l8.064897 31.211153a473.490116 473.490116 0 0 1 119.521777-15.242656v-32.259589zM319.354103 52.421832a501.878554 501.878554 0 0 0-56.45428 27.098055l-1.290384 0.72584-0.887138 0.483894-0.887139 0.483894h-0.403245l-0.80649 0.483894-0.887138 0.483894-0.80649 0.483894h-0.403245l-0.80649 0.483893h-0.403245l-0.806489 0.483894-0.80649 0.483894-0.80649 0.483894-0.806489 0.483894-0.80649 0.483894h-0.403245l-0.725841 0.483893-0.725841 0.483894h-1.290383l-0.80649 0.564543-0.887139 0.645192-0.887138 0.645192-1.209735 0.887138-1.209734 0.887139-1.854927 1.371032 19.275105 25.888321a471.312594 471.312594 0 0 1 104.843663-59.115697l-12.097345-29.920769z m-161.297944 104.843664q-12.500591 12.016697-24.194692 24.920532l-0.645191 0.725841-0.725841 0.80649a505.991652 505.991652 0 0 0-32.743483 41.614869l-0.80649 1.209735v0.403245l-0.564542 0.806489q-7.258407 10.645664-13.952273 21.613925l27.5013 16.774986a474.215957 474.215957 0 0 1 75.32614-94.036701l-22.420414-23.226904zM47.567067 314.772938a500.426872 500.426872 0 0 0-34.195164 108.553517V433.084981l-0.645192 4.032448 31.856344 5.161535a468.651177 468.651177 0 0 1 34.51776-115.328031l-29.436875-13.145782zM4.419867 502.20115V569.543042l0.483894 3.387256q2.822714 20.565488 7.339056 40.324487l31.453099-7.016461a474.69985 474.69985 0 0 1-11.371505-103.472631v-16.53304l-32.259589-1.129085zM64.664649 681.241868l-30.324013 11.048909a502.443097 502.443097 0 0 0 59.115696 114.279594l26.533512-18.387966A470.586753 470.586753 0 0 1 64.664649 681.241868z m92.826967 154.281484l-24.194692 21.613925a506.717492 506.717492 0 0 0 97.585257 83.874931l17.742774-26.936757a474.619201 474.619201 0 0 1-91.375286-78.552099z m143.797118 108.472868l-14.19422 28.952981q21.291329 10.403717 43.550445 18.79121h1.935576l1.371032 0.483894 1.371033 0.483894 1.371032 0.483894H347.016701l1.371032 0.483893h3.387257l1.451682 0.483894a500.023628 500.023628 0 0 0 53.147672 13.629677l6.29062-31.614398a468.651177 468.651177 0 0 1-114.037647-38.550208z m294.20745 39.598645a475.828936 475.828936 0 0 1-87.262188 8.064897c-10.96826 0-22.097818 0-33.066078-1.129085l-2.258172 32.259588h2.500119q11.452154 0.725841 22.984957 0.967788h34.679058a505.185162 505.185162 0 0 0 68.390328-8.064897l-5.968024-31.695046z m167.265968-66.454753a469.941561 469.941561 0 0 1-108.795463 51.534693l9.919824 30.64661 13.226431-4.516343 1.371033-0.483894h4.193746a502.281799 502.281799 0 0 0 96.778767-48.389383l-17.420178-27.178704z m130.32874-124.360715a474.780499 474.780499 0 0 1-81.697409 88.713869l20.726786 24.678586a506.959439 506.959439 0 0 0 87.262188-94.601245l-26.291565-18.710561zM967.368595 628.820036a468.812475 468.812475 0 0 1-42.502008 112.908561l28.469087 15.162007a500.58817 500.58817 0 0 0 45.48602-120.408915l-31.37245-7.419706z m39.276049-184.847444l-32.259588 4.838938a478.490352 478.490352 0 0 1 2.742065 120.489565l32.259588 3.306608q2.177522-21.130031 2.661417-42.824605V498.571946a506.556194 506.556194 0 0 0-5.242184-54.196109z m-64.519177-181.137592l-27.743247 16.129795a469.377018 469.377018 0 0 1 47.663543 110.569741l31.049854-8.871387q-4.274396-15.000709-9.43593-29.517524V339.290226l-0.564542-1.371032a502.20115 502.20115 0 0 0-34.679059-70.406553zM814.216197 119.118532l-19.5977 25.646373a474.941797 474.941797 0 0 1 85.649208 84.76207l25.404426-19.839647q-8.064897-10.565015-17.016933-20.646137l-0.967788-1.129086-0.645191-0.725841-0.645192-0.72584-0.645192-0.725841-0.645192-0.725841-0.645191-0.725841-0.645192-0.72584-0.645192-0.725841-0.645192-0.645192-0.645192-0.645192-0.645191-0.645191-0.725841-0.564543-0.725841-0.645192-0.725841-0.645192-0.72584-0.645191-0.725841-0.564543-0.725841-0.645192-2.33882-1.854926-2.33882-1.854927-6.371269-4.919587zM641.869343 33.630621l-8.548791 31.130504a469.21572 469.21572 0 0 1 111.053635 46.453808l16.129794-27.904545A501.072064 501.072064 0 0 0 641.788694 33.630621zM508.233996 15.887848v32.259588a478.087107 478.087107 0 0 1 65.890211 4.596992l4.435693-32.259589-5.726077-0.80649h-12.097346Q546.864854 18.226668 532.751284 17.581476h-24.194692zM533.961018 598.496023v13.226431h-56.45428V596.560447q-1.935575-56.454281 52.905726-96.778766 52.905726-35.888793 47.260297-75.568087-5.645428-45.324722-56.45428-49.115224-68.067733-1.854926-79.358589 68.067732l-60.486729-17.016933q24.194692-111.537529 145.16815-105.811451 105.811452 5.645428 115.32803 105.8921 1.854926 62.341656-71.858234 115.32803-37.985666 24.759234-36.050091 56.938175z m-64.519177 52.905725h71.858234V717.533906h-71.858234z" fill="#CACACA" p-id="1783"></path></svg>