<svg xmlns="http://www.w3.org/2000/svg" width="18" height="18" viewBox="0 0 18 18">
    <path fill="#0C293A" fill-rule="evenodd" d="M15.591 12.768a23.1 23.1 0 0 1-1.141.004c-.055-.002-.136-.059-.16-.11-.402-.888-1.163-1.35-2.012-1.71-.364-.155-.733-.297-1.09-.465-.391-.185-.535-.762-.317-1.134.131-.224.228-.467.348-.698.09-.17.184-.34.289-.502.263-.408.38-.844.301-1.331a1.489 1.489 0 0 1 0-.482c.091-.524.085-1.04-.067-1.552-.013-.042-.01-.09-.017-.153.239-.022.467-.058.694-.055.075.001.185.089.215.163.064.158.161.227.327.255.567.096.816.506.937 1.012.093.39.089.785-.054 1.17a.27.27 0 0 0 .008.175.819.819 0 0 1-.212.947c-.046.044-.066.119-.095.18-.118.257-.22.523-.358.77-.153.274-.049.852.249 1.017.323.179.67.316 1.016.45.545.21 1.055.463 1.266 1.059.077.22.105.46.136.694.023.182-.085.291-.263.296m-1.997.828c-1.15.002-2.3 0-3.451 0H9.024v-.002H4.55c-.447 0-.532-.128-.394-.553.206-.632.659-1.041 1.228-1.322.545-.27 1.115-.49 1.67-.74.447-.202.739-.514.688-1.049-.008-.078.002-.158.01-.237a.947.947 0 0 0-.186-.68c-.171-.247-.249-.558-.379-.835a.81.81 0 0 0-.202-.288c-.26-.21-.37-.78-.215-1.099a.473.473 0 0 0 .034-.322c-.501-1.512.32-2.963 2.086-3.224.07-.01.14-.024.211-.035.388-.061.397-.047.579.305.046.089.158.185.253.2.834.14 1.242.749 1.354 1.561.06.436.058.87-.135 1.282-.02.045-.006.122.02.17.216.42.119.901-.24 1.197a.427.427 0 0 0-.129.21c-.1.385-.22.758-.493 1.065-.046.052-.059.146-.06.22 0 .23.024.46.019.69-.007.284.118.508.348.635.426.236.869.445 1.314.645.623.28 1.268.53 1.663 1.133.136.207.23.45.301.69.084.288-.003.383-.3.383m-10.101-.824c-.332.017-.666.014-1 .005-.28-.007-.371-.11-.346-.39.067-.725.514-1.169 1.128-1.473.376-.186.763-.346 1.143-.523.483-.225.627-.764.334-1.209a2.245 2.245 0 0 1-.204-.4c-.085-.214-.14-.422-.32-.605-.202-.203-.182-.506-.094-.786a.472.472 0 0 0 .014-.266c-.346-1.092.246-2.121 1.385-2.441.23-.065.473-.082.76-.129-.215.678-.223 1.278-.063 1.883a.459.459 0 0 1-.014.23c-.175.614-.062 1.156.38 1.626.057.06.084.148.12.225.131.27.239.554.395.808.235.382.112.965-.293 1.154-.494.23-1.005.425-1.502.648-.701.315-1.26.783-1.59 1.498-.034.071-.151.141-.233.145M9 0a9 9 0 1 0 0 18A9 9 0 0 0 9 0"/>
</svg>
