<svg xmlns="http://www.w3.org/2000/svg" width="18" height="18" viewBox="0 0 18 18">
    <path fill="#FFF" fill-rule="evenodd" d="M3.023 15.474h8.975v-.76H3.023v.76zm9.056-1.62l-.14-.776h-8.91v.776h9.05zM3 10.649h12.265v-.754H3v.754zm.002-1.624h12.259v-.752H3.002v.752zM3 12.261h12.243v-.782H3v.782zm10.31 4.896l3.194-3.267h-3.193v3.267zM2.736 6.247H15.28V4.69H2.735v1.559zm-1.162-5.12c.282-.336.51-.605.733-.878.251-.308.51-.33.815-.069.294.25.594.501.922.699.129.077.377.077.508 0 .315-.186.607-.422.881-.668.31-.278.571-.248.881.007.36.296.75.749 1.137.76.357.01.743-.456 1.086-.75.326-.279.593-.277.924-.003.356.296.752.74 1.136.745.36.006.744-.456 1.085-.75.334-.288.6-.256.923.018.343.29.726.73 1.095.734.366.003.76-.427 1.1-.718.413-.355.734-.303 1.054.107.176.224.371.43.636.735.278-.33.472-.61.716-.832.143-.13.406-.27.543-.215.131.052.237.348.239.539.017 1.96.01 3.92.01 5.881 0 2.012.012 4.024-.014 6.035a1.29 1.29 0 0 1-.323.796 242.37 242.37 0 0 1-4.276 4.377 1.153 1.153 0 0 1-.737.308c-3.765.02-7.53.016-11.295.012-.904-.001-1.35-.457-1.35-1.38C0 11.296-.002 5.976.01.658c0-.21.137-.421.21-.631.212.094.454.15.626.293.242.202.431.47.727.807z"/>
</svg>
