<?xml version="1.0" standalone="no"?><!DOCTYPE svg PUBLIC "-//W3C//DTD SVG 1.1//EN" "http://www.w3.org/Graphics/SVG/1.1/DTD/svg11.dtd"><svg t="1569466405935" class="icon" viewBox="0 0 1024 1024" version="1.1" xmlns="http://www.w3.org/2000/svg" p-id="1181" xmlns:xlink="http://www.w3.org/1999/xlink" width="200" height="200"><defs><style type="text/css"></style></defs><path d="M431.616 791.04c-209.408 0-379.904-170.496-379.904-379.904 0-209.408 170.496-379.904 379.904-379.904s379.904 170.496 379.904 379.904c0 209.408-170.496 379.904-379.904 379.904z m0-693.248c-172.544 0-313.344 140.288-313.344 313.344 0 172.544 140.288 313.344 313.344 313.344 172.544 0 313.344-140.288 313.344-313.344 0-172.544-140.8-313.344-313.344-313.344z" fill="#dae2ed" p-id="1182"></path><path d="M676.864 660.48l278.528 278.528c12.8 12.8 12.8 34.304 0 47.104-12.8 12.8-34.304 12.8-47.104 0L629.76 707.584c-12.8-12.8-12.8-34.304 0-47.104 12.8-12.8 34.304-12.8 47.104 0z" fill="#dae2ed" p-id="1183"></path></svg>