<svg xmlns="http://www.w3.org/2000/svg" width="21" height="25" viewBox="0 0 21 25">
    <path fill="#FFF" fill-rule="evenodd" d="M7 22c.133.136 1.168.098 1.336.094.453-.011.904 0 1.356.02l1.354.067c.884.037 1.763-.019 2.648-.007.39.005.918-.008 1.306.014 0 0-.36.674-.396.733-.692 1.127-1.763 1.955-3.15 2.066a4.016 4.016 0 0 1-2.638-.709 3.963 3.963 0 0 1-.974-1.008c-.286-.42-.482-.9-.842-1.27zm6.361-19c2.623 1.165 3.596 3.398 3.646 6.07.058 3.13.606 5.912 3.37 7.902.891.642.727 1.55.13 2.176l-.418.347a2.41 2.41 0 0 1-.338.184l-.077.034c-1.022.444-2.08.744-3.16.944l-.656.109c-3.302.483-6.788.096-10.056-.073-1.4-.073-2.826-.146-4.136-.7-1.755-.742-2.39-2.436-.586-3.627 2.283-1.506 2.664-4.03 2.724-6.58.008-.369.026-.717.053-1.048l.074-.692c.195-1.45.618-2.521 1.361-3.38l.375-.39c.484-.458 1.078-.854 1.8-1.222.312.308.647.632 1.01.916a2.5 2.5 0 0 0 4.227-.288c.231-.223.449-.457.657-.682zm-2.86-3a2.5 2.5 0 0 1 2.203 3.682c-.578.553-1.24 1.031-2.046 1.094-.828.065-1.546-.308-2.181-.806A2.5 2.5 0 0 1 10.5 0z"/>
</svg>
