<?xml version="1.0" encoding="UTF-8"?>
<svg width="25px" height="25px" viewBox="0 0 25 25" version="1.1" xmlns="http://www.w3.org/2000/svg" xmlns:xlink="http://www.w3.org/1999/xlink">
    <!-- Generator: Sketch 52.6 (67491) - http://www.bohemiancoding.com/sketch -->
    <title>修改</title>
    <desc>Created with Sketch.</desc>
    <g id="Page-1" stroke="none" stroke-width="1" fill="none" fill-rule="evenodd">
        <g id="修改" transform="translate(-4.000000, -4.000000)">
            <g id="分组">
                <rect id="矩形" fill="#000000" opacity="0" x="0" y="0" width="32" height="32"></rect>
                <g id="分组-43" transform="translate(4.000000, 4.000000)">
                    <path d="M21.2962963,25 L3.7037037,25 C1.66666667,25 0,23.3333333 0,21.2962963 L0,3.7037037 C0,1.66666667 1.66666667,0 3.7037037,0 L18.6507937,0 C19.2328042,0 19.7089947,0.476190476 19.7089947,1.05820106 C19.7089947,1.64021164 19.2328042,2.11640212 18.6507937,2.11640212 L3.7037037,2.11640212 C2.83068783,2.11640212 2.11640212,2.83068783 2.11640212,3.7037037 L2.11640212,21.2962963 C2.11640212,22.1693122 2.83068783,22.8835979 3.7037037,22.8835979 L21.2962963,22.8835979 C22.1693122,22.8835979 22.8835979,22.1693122 22.8835979,21.2962963 L22.8835979,9.65608466 C22.8835979,9.07407407 23.3597884,8.5978836 23.9417989,8.5978836 C24.5238095,8.5978836 25,9.07407407 25,9.65608466 L25,21.2962963 C25,23.3333333 23.3465608,25 21.2962963,25 Z" id="路径" fill="#4A4A4A"></path>
                    <path d="M9.05632985,19 C8.79307007,19 8.51664731,18.8946757 8.30603949,18.6971926 C7.89798684,18.289061 7.89798684,17.6176186 8.30603949,17.2094869 L23.2065428,2.30609874 C23.6145954,1.89796709 24.2859079,1.89796709 24.6939605,2.30609874 C25.1020132,2.7142304 25.1020132,3.3856728 24.6939605,3.79380445 L9.80662021,18.6971926 C9.59601239,18.8946757 9.33275261,19 9.05632985,19 Z" id="路径" fill="#2567EB"></path>
                </g>
            </g>
        </g>
    </g>
</svg>