<?xml version="1.0" encoding="UTF-8"?>
<svg width="26px" height="26px" viewBox="0 0 26 26" version="1.1" xmlns="http://www.w3.org/2000/svg" xmlns:xlink="http://www.w3.org/1999/xlink">
    <!-- Generator: Sketch 52.6 (67491) - http://www.bohemiancoding.com/sketch -->
    <title>加号2</title>
    <desc>Created with Sketch.</desc>
    <g id="Page-1" stroke="none" stroke-width="1" fill="none" fill-rule="evenodd">
        <g id="加号2" transform="translate(-3.000000, -3.000000)">
            <g id="分组">
                <rect id="矩形" fill="#000000" opacity="0" x="0" y="0" width="32" height="32"></rect>
                <path d="M28.5,8.6125 L28.5,23.384375 C28.5,24.790625 28,25.996875 27,27 C26,28 24.796875,28.5 23.384375,28.5 L8.615625,28.5 C7.209375,28.5 6.003125,28 5,27 C3.996875,26 3.5,24.796875 3.5,23.384375 L3.5,8.6125 C3.5,7.20625 4,6 5,4.996875 C6,3.99375 7.203125,3.496875 8.615625,3.496875 L23.3875,3.496875 C24.79375,3.496875 26,3.996875 27.003125,4.996875 C28,6 28.5,7.20625 28.5,8.6125 Z M26.228125,23.3875 L26.228125,8.6125 C26.228125,7.83125 25.946875,7.1625 25.396875,6.60625 C24.840625,6.05 24.171875,5.775 23.390625,5.775 L8.615625,5.775 C7.834375,5.775 7.165625,6.05625 6.609375,6.60625 C6.053125,7.1625 5.778125,7.83125 5.778125,8.6125 L5.778125,23.384375 C5.778125,24.165625 6.053125,24.834375 6.609375,25.390625 C7.165625,25.946875 7.834375,26.221875 8.615625,26.221875 L23.3875,26.221875 C24.16875,26.221875 24.8375,25.946875 25.39375,25.390625 C25.95,24.834375 26.228125,24.165625 26.228125,23.3875 Z" id="形状" fill="#4A4A4A" fill-rule="nonzero"></path>
                <rect id="矩形" fill="#2567EB" x="8" y="15" width="16" height="2"></rect>
                <rect id="矩形" fill="#2567EB" transform="translate(16.000000, 16.000000) rotate(-270.000000) translate(-16.000000, -16.000000) " x="8" y="15" width="16" height="2"></rect>
            </g>
        </g>
    </g>
</svg>