<?xml version="1.0" encoding="UTF-8"?>
<svg width="28px" height="28px" viewBox="0 0 28 28" version="1.1" xmlns="http://www.w3.org/2000/svg" xmlns:xlink="http://www.w3.org/1999/xlink">
    <!-- Generator: Sketch 52.6 (67491) - http://www.bohemiancoding.com/sketch -->
    <title>导入</title>
    <desc>Created with Sketch.</desc>
    <g id="Page-1" stroke="none" stroke-width="1" fill="none" fill-rule="evenodd">
        <g id="导入" transform="translate(-2.000000, -2.000000)">
            <g id="分组">
                <rect id="矩形" fill="#000000" opacity="0" x="0" y="0" width="32" height="32"></rect>
                <path d="M2.665625,13.284375 L2.665625,7.953125 C2.665625,5.00625 5.053125,2.61875 8,2.61875 L24,2.61875 C26.946875,2.61875 29.334375,5.00625 29.334375,7.953125 L29.334375,23.953125 C29.334375,26.9 26.946875,29.2875 24,29.2875 L18.665625,29.2875 C17.928125,29.2875 17.33125,28.690625 17.33125,27.953125 C17.33125,27.215625 17.928125,26.61875 18.665625,26.61875 L24,26.61875 C25.471875,26.61875 26.665625,25.425 26.665625,23.953125 L26.665625,7.953125 C26.665625,6.48125 25.471875,5.2875 24,5.2875 L8,5.2875 C6.528125,5.2875 5.334375,6.48125 5.334375,7.953125 L5.334375,13.2875 C5.334375,14.025 4.7375,14.621875 4,14.621875 C3.2625,14.621875 2.665625,14.021875 2.665625,13.284375 Z" id="路径" fill="#4A4A4A"></path>
                <path d="M16.459375,23.846875 C16.528125,23.684375 16.5625,23.5125 16.5625,23.334375 C16.5625,23.15625 16.525,22.98125 16.459375,22.821875 C16.390625,22.659375 16.29375,22.5125 16.171875,22.390625 L11.459375,17.678125 C10.9375,17.15625 10.096875,17.15625 9.575,17.678125 C9.053125,18.196875 9.053125,19.040625 9.575,19.5625 L12.0125,22 L4,22 C3.2625,22 2.665625,22.596875 2.665625,23.334375 C2.665625,24.071875 3.2625,24.66875 4,24.66875 L12.0125,24.66875 L9.575,27.10625 C9.053125,27.625 9.053125,28.46875 9.575,28.990625 C9.834375,29.25 10.175,29.38125 10.51875,29.38125 C10.859375,29.38125 11.2,29.25 11.4625,28.990625 L16.175,24.278125 C16.29375,24.153125 16.390625,24.009375 16.459375,23.846875" id="路径" fill="#2567EB"></path>
            </g>
        </g>
    </g>
</svg>