<?xml version="1.0" encoding="UTF-8"?>
<svg width="26px" height="26px" viewBox="0 0 26 26" version="1.1" xmlns="http://www.w3.org/2000/svg" xmlns:xlink="http://www.w3.org/1999/xlink">
    <!-- Generator: Sketch 52.6 (67491) - http://www.bohemiancoding.com/sketch -->
    <title>日历</title>
    <desc>Created with Sketch.</desc>
    <g id="Page-1" stroke="none" stroke-width="1" fill="none" fill-rule="evenodd">
        <g id="日历" transform="translate(-3.000000, -3.000000)">
            <g id="分组">
                <rect id="矩形" fill="#000000" opacity="0" x="0" y="0" width="32" height="32"></rect>
                <path d="M22.3333333,5 L24.668,5 C26.6933333,5 28.3333333,6.64133331 28.3333333,8.66966666 L28.3333333,24.6633333 C28.3333333,26.6903333 26.6926667,28.3333333 24.668,28.3333333 L6.66533331,28.3333333 C4.64,28.3333333 3,26.692 3,24.6636667 L3,8.67 C3,6.643 4.64066666,5 6.66533331,5 L9,5 L9,4 C9,3.44771525 9.44771525,3 10,3 C10.5522847,3 11,3.44771525 11,4 L11,5 L20.3333333,5 L20.3333333,4 C20.3333333,3.44771525 20.7810486,3 21.3333333,3 C21.8856181,3 22.3333333,3.44771525 22.3333333,4 L22.3333333,5 Z M22.3333333,7 L22.3333333,8 C22.3333333,8.55228475 21.8856181,9 21.3333333,9 C20.7810486,9 20.3333333,8.55228475 20.3333333,8 L20.3333333,7 L11,7 L11,8 C11,8.55228475 10.5522847,9 10,9 C9.44771525,9 9,8.55228475 9,8 L9,7 L6.66533331,7 C6.2230711,7.00053008 5.79913831,7.17674943 5.48681808,7.48988234 C5.17449785,7.80301526 4.99938077,8.22740456 5,8.66966666 L5,24.6633333 C4.99884891,25.1057881 5.17378422,25.5305205 5.48621004,25.8438218 C5.79863586,26.1571231 6.22287699,26.3332463 6.66533331,26.3333333 L24.668,26.3333333 C25.1102622,26.3328032 25.534195,26.1565839 25.8465152,25.843451 C26.1588355,25.5303181 26.3339525,25.1059288 26.3333333,24.6636667 L26.3333333,8.67 C26.3344844,8.22754516 26.1595491,7.80281285 25.8471233,7.48951153 C25.5346975,7.17621022 25.1104563,7.00008705 24.668,7 L22.3333333,7 Z" id="形状" fill="#4A4A4A" fill-rule="nonzero"></path>
                <rect id="矩形" fill="#2567EB" fill-rule="nonzero" x="9" y="14" width="14" height="2" rx="1"></rect>
                <rect id="矩形-copy-44" fill="#2567EB" fill-rule="nonzero" x="9" y="18" width="11" height="2" rx="1"></rect>
            </g>
        </g>
    </g>
</svg>