<?xml version="1.0" encoding="UTF-8"?>
<svg width="1300px" height="937px" viewBox="0 0 1300 937" version="1.1" xmlns="http://www.w3.org/2000/svg" xmlns:xlink="http://www.w3.org/1999/xlink">
    <!-- Generator: Sketch 55.2 (78181) - https://sketchapp.com -->
    <title>画板</title>
    <desc>Created with Sketch.</desc>
    <g id="画板" stroke="none" stroke-width="1" fill="none" fill-rule="evenodd">
        <rect fill="#F3F9FF" x="0" y="0" width="1300" height="937"></rect>
        <g id="Group" transform="translate(0.000000, 439.000000)" fill="#CAE5FF">
            <path d="M145.936216,63.2103072 L424.313033,495.722457 L509.688949,495.90942 L203.743003,20.5658703 C182.083918,31.2177756 162.506293,45.6603148 145.936216,63.2103072 Z" id="Path"></path>
            <path d="M106.469189,397.142253 C114.151832,438.307986 86.0727928,471.791263 47.6765766,466.743276 C9.28036036,461.69529 0,494.787645 0,494.787645 L374.018919,495.603481 L118.809009,99.0901024 C58.4696697,195.290785 98.8375375,356.265461 106.469189,397.142253 Z" id="Path"></path>
            <path d="M1088.75964,474.833652 C1066.08565,442.914061 1040.36919,418.031058 1004.0806,403.312014 C977.01476,392.591722 948.926481,384.658626 920.251411,379.635768 C920.251411,379.635768 920.557357,373.822935 920.557357,370.882526 C920.591026,332.403312 903.071675,296.009895 872.973415,272.035127 C842.875155,248.06036 803.485011,239.12252 765.986667,247.759249 L926.336336,496.810239 L1131.35411,497.235154 C1120.93495,496.300341 1095.2015,483.909829 1088.75964,474.833652 Z" id="Path"></path>
            <path d="M659.211532,279.389898 C600.086027,297.030533 537.068264,267.943873 512.136517,211.505529 L512.136517,211.505529 C502.142282,188.883072 499.966667,172.175427 494.476637,148.05727 C474.012252,58.3152901 393.718438,0 297.77039,0 C281.181321,0 259.867087,2.02259386 244.450811,5.79583618 L559.983063,496.028396 L876.008228,496.708259 L723.749129,260.149761 L659.211532,279.389898 Z" id="Path"></path>
        </g>
        <g id="编组" transform="translate(230.000000, 75.000000)" fill-rule="nonzero">
            <path d="M185.681059,-1.42108547e-14 C206.785588,-1.42108547e-14 224.212664,15.5526352 227.258055,35.8175026 C231.66737,31.2308291 237.851903,28.3641582 244.713862,28.3641582 C256.444817,28.3641582 266.226661,36.703977 268.466097,47.7788571 C273.673806,40.3935867 282.25201,35.5557959 291.97337,35.5557959 C307.861118,35.5557959 320.741277,48.4414439 320.741277,64.3359617 C320.741277,67.2540663 320.29974,70.0662781 319.492273,72.7196505 C322.280606,70.6396122 325.728218,69.393102 329.473716,69.393102 C338.717249,69.393102 346.21127,76.8903163 346.21127,86.1377883 C346.21127,95.3852602 338.717249,102.882474 329.473716,102.882474 L141.276415,102.882474 C128.973882,102.882474 119,92.9043418 119,80.5965663 C119,68.2887908 128.973882,58.3106582 141.276415,58.3106582 C143.325325,58.3106582 145.300142,58.6101837 147.185744,59.1290587 C144.884311,53.9236684 143.580872,48.1767117 143.580872,42.1181276 C143.582384,18.8564923 162.430844,-1.42108547e-14 185.681059,-1.42108547e-14 Z" id="cloud_2_" fill="#E7F4FE"></path>
            <g id="plant_16_" transform="translate(591.989619, 394.558673)">
                <path d="M119.818142,77.2745561 C109.2999,95.5077934 55.2479896,152.387385 46.9253322,140.525872 C42.8139031,134.666972 62.613481,112.568645 82.2346298,36.4437832 C89.1162457,9.74516837 107.317522,-8.99484184 124.055076,5.59416837 C140.030526,19.5160536 130.336384,59.0398061 119.818142,77.2745561 Z" id="Path" fill="#1B90FB"></path>
                <path d="M45.4056609,142.642217 C45.3149343,142.618013 45.2332803,142.560528 45.1803564,142.474301 C45.0699723,142.297309 45.1259204,142.064344 45.3043495,141.953913 C45.6884256,141.717923 83.9962388,117.327773 111.297398,30.0493673 C111.359394,29.8511964 111.557481,29.7468163 111.770689,29.8012755 C111.970287,29.8648112 112.080671,30.0750842 112.018675,30.2762806 C97.7080588,76.0265332 80.4563875,104.116883 68.5031522,119.625648 C55.5307543,136.456561 45.7988097,142.539349 45.7005225,142.59986 C45.6082837,142.654776 45.5009239,142.667934 45.4056609,142.642217 Z" id="Path" fill="#F3F9FF"></path>
                <path d="M124.434616,48.632051 C103.366377,65.6323929 39.2770761,144.161023 49.9934048,161.007064 C60.7097336,177.854617 163.794858,108.928957 184.861585,91.9286148 C205.928311,74.928273 211.303865,47.8242398 196.503325,36.3757092 C173.171457,18.3255153 145.501343,31.6317092 124.434616,48.632051 Z" id="Path" fill="#9E95E3"></path>
                <path d="M47.8704014,163.683128 C47.8205017,163.669513 47.7736263,163.646821 47.7312872,163.613541 C47.5679792,163.483444 47.5407612,163.245941 47.6708028,163.082564 C47.8250381,162.888931 63.310564,143.481796 86.4216644,120.444048 C107.756035,99.1762245 140.14091,70.3733673 173.259159,53.9387959 C173.445149,53.8480306 173.671965,53.9221556 173.765716,54.11125 C173.857955,54.2973189 173.782349,54.5242321 173.594848,54.618023 C140.570349,71.005699 108.256543,99.7465332 86.963,120.973513 C63.8821419,143.981005 48.4177855,163.359398 48.2635502,163.553031 C48.165263,163.674051 48.0110277,163.720946 47.8704014,163.683128 Z" id="Path" fill="#F3F9FF"></path>
                <path d="M129.228007,112.904477 C110.019664,116.595599 48.1365329,146.274342 51.948564,160.436755 C55.7605952,174.599168 145.440858,175.382776 164.649201,171.691653 C183.857543,168.000531 198.577941,157.884737 190.595509,134.117842 C183.21036,112.128434 148.436349,109.213355 129.228007,112.904477 Z" id="Path" fill="#1B90FB"></path>
                <path d="M0.258570934,185.639255 C0.219256055,185.605974 0.18750173,185.56513 0.164820069,185.515209 C0.0740934256,185.326115 0.152723183,185.100714 0.341737024,185.011462 C0.564017301,184.904056 22.9583772,174.190724 53.7948512,163.533365 C82.2633599,153.695918 123.958301,141.894916 160.924872,141.543946 C161.132031,141.542444 161.3029,141.708847 161.305964,141.91912 C161.308948,142.12788 161.139592,142.298821 160.93092,142.300334 C124.068685,142.648268 82.4629585,154.425066 54.0503979,164.24436 C23.2532388,174.886592 0.892145329,185.584796 0.669865052,185.692202 C0.529238754,185.760276 0.368955017,185.733046 0.258570934,185.639255 Z" id="Path" fill="#F3F9FF"></path>
            </g>
            <g id="cog_5_" transform="translate(536.000000, 190.000000)" fill="#E7F4FE">
                <path d="M187.643869,51.0675867 C186.1121,47.365875 182.180612,45.2616327 178.252149,46.0391888 L165.843768,48.4943903 C162.917834,49.0737755 159.8921,48.0541786 157.91426,45.821352 C155.821498,43.4554031 153.604744,41.2286276 151.270045,39.150102 C149.04573,37.1699056 148.037152,34.1564974 148.614779,31.2338546 L151.06591,18.8413648 C151.843135,14.911227 149.739789,10.9795765 146.039654,9.44564286 L127.720433,1.85463776 C124.02181,0.322216837 119.754633,1.61410969 117.525782,4.94217092 L110.500516,15.4376658 C108.846266,17.9095077 105.995938,19.3299847 103.027664,19.1575306 C99.9081799,18.976 96.7660138,18.982051 93.6147751,19.1741709 C90.6344048,19.3557015 87.7810519,17.93825 86.1192422,15.4558189 L79.0818789,4.94217092 C76.8530277,1.61259694 72.5873633,0.320704082 68.8872284,1.85463776 L50.5680069,9.44564286 C46.867872,10.9780638 44.764526,14.911227 45.5417509,18.8413648 L47.9974187,31.2535204 C48.5765571,34.1807015 47.5573945,37.2077245 45.325519,39.1864082 C42.9605779,41.2800612 40.7347509,43.4977602 38.6571107,45.8334541 C36.6777578,48.0587168 33.6656332,49.0677245 30.7442353,48.489852 L18.3570242,46.037676 C14.4285606,45.2601199 10.4985848,47.3643622 8.9653045,51.066074 L1.37753287,69.393102 C-0.154235294,73.093301 1.13710727,77.3622959 4.46375087,79.5920969 L14.9547751,86.6203571 C17.425564,88.2753112 18.845436,91.1268546 18.6730554,94.0963929 C18.4916021,97.2172066 18.4976505,100.360712 18.6896886,103.513293 C18.8711419,106.494934 17.4542941,109.351015 14.9729204,111.01202 L4.46375087,118.052383 C1.13710727,120.280671 -0.155747405,124.551179 1.37753287,128.251378 L8.9653045,146.578406 C10.4970727,150.280117 14.4285606,152.38436 18.3570242,151.606804 L30.7638927,149.150089 C33.689827,148.570704 36.7155606,149.590301 38.6934014,151.823128 C40.7861626,154.187564 43.002917,156.415852 45.3376159,158.494378 C47.5619308,160.474574 48.5720208,163.487982 47.9928824,166.410625 L45.5417509,178.801602 C44.764526,182.73174 46.867872,186.66339 50.5680069,188.197324 L68.8872284,195.788329 C72.5873633,197.322263 76.8545398,196.028857 79.0818789,192.700796 L86.1071453,182.205301 C87.7613945,179.733459 90.6117232,178.312982 93.5799965,178.485436 C96.699481,178.666967 99.8416471,178.660916 102.992886,178.468796 C105.973256,178.287265 108.826609,179.704717 110.488419,182.187148 L117.525782,192.700796 C119.754633,196.028857 124.020298,197.322263 127.720433,195.788329 L146.039654,188.197324 C149.739789,186.664903 151.843135,182.73174 151.06591,178.801602 L148.610242,166.387934 C148.031104,163.460753 149.050266,160.43373 151.282142,158.456559 C153.647083,156.362906 155.87291,154.143694 157.95055,151.809513 C159.931415,149.58425 162.942028,148.575242 165.863426,149.153115 L178.250637,151.603778 C182.1791,152.381334 186.109076,150.277092 187.642356,146.57538 L195.230128,128.248352 C196.761896,124.54664 195.470554,120.277645 192.14391,118.049357 L181.652886,111.021097 C179.182097,109.36463 177.762225,106.514599 177.934606,103.545061 C178.116059,100.424247 178.11001,97.2807423 177.917972,94.1281607 C177.736519,91.1465204 179.153367,88.2904388 181.63474,86.6294337 L192.14391,79.5890714 C195.470554,77.3592704 196.763408,73.0902755 195.230128,69.3900765 L187.643869,51.0675867 Z M114.377567,137.648612 C92.9464221,146.529997 68.3746228,136.347643 59.4970208,114.907365 C50.6194187,93.4670867 60.797436,68.8848163 82.2285813,60.0034311 C103.659727,51.1220459 128.231526,61.3044005 137.109128,82.7446786 C145.98673,104.186469 135.810225,128.767227 114.377567,137.648612 Z" id="Shape"></path>
            </g>
            <g id="cog_6_" transform="translate(651.000000, 225.000000)">
                <path d="M146.781,90.607849 C143.0235,87.993026 140.7834,83.7022656 140.7825,79.1213698 C140.7816,74.540474 143.0199,70.2452083 146.7783,67.6312865 C155.6577,61.4537448 159.7401,54.9112813 156.4668,46.9983333 C153.1935,39.0862865 145.6875,37.3499792 135.0468,39.2664948 C130.5432,40.0774323 125.9289,38.6294583 122.6925,35.3902135 C119.4561,32.1509687 118.0062,27.529526 118.8162,23.0207135 C120.7314,12.3658958 118.998,4.85030729 111.0942,1.57231771 C103.1904,-1.70567188 96.6555,2.38145312 90.4842,11.2720312 C87.8724,15.0347812 83.5848,17.278375 79.0083,17.278375 C74.4309,17.277474 70.146,15.0320781 67.5342,11.2693281 C61.3638,2.38145312 54.8298,-1.70386979 46.9269,1.57321875 C39.024,4.85030729 37.2897,12.3649948 39.204,23.0171094 C40.014,27.5259219 38.5677,32.1455625 35.3331,35.3857083 C32.0976,38.6258542 27.4815,40.0774323 22.9779,39.2664948 C12.3354,37.3490781 4.8285,39.0844844 1.5543,46.9983333 C-1.7199,54.9112813 2.3625,61.4537448 11.2428,67.6312865 C15.0012,70.2461094 17.2422,74.5386719 17.2422,79.1204688 C17.2413,83.7031667 14.9985,87.993026 11.2401,90.607849 C2.3625,96.7853906 -1.719,103.326953 1.5552,111.239 C4.8294,119.151948 12.3363,120.888255 22.9788,118.969938 C27.4833,118.158099 32.0994,119.606073 35.3358,122.84712 C38.5722,126.088167 40.0158,130.709609 39.2049,135.219323 C37.2906,145.872339 39.0249,153.387026 46.9278,156.664115 C54.8316,159.941203 61.3665,155.854078 67.5369,146.964401 C70.1487,143.201651 74.4363,140.958057 79.0128,140.958057 C83.5902,140.958958 87.8751,143.204354 90.4869,146.967104 C96.6573,155.854979 103.1913,159.941203 111.0942,156.664115 C118.9971,153.387026 120.7314,145.872339 118.8171,135.219323 C118.0071,130.71051 119.4534,126.089969 122.6889,122.850724 C125.9244,119.610578 130.5405,118.159 135.0441,118.969938 C145.6866,120.887354 153.1935,119.151948 156.4677,111.239 C159.7392,103.326953 155.6586,96.7844896 146.781,90.607849 Z" id="Path" fill="#DCEEFD"></path>
                <ellipse id="Oval" fill="#C9E3FF" cx="79.0101" cy="79.1177656" rx="41.9193" ry="41.9678177"></ellipse>
                <path d="M120.9285,79.1177656 C120.9285,102.270031 102.1347,121.085583 79.0092,121.085583 C66.573,121.085583 55.3248,115.629776 47.7099,106.956349 C55.0458,113.601531 64.8261,117.588641 75.5163,117.588641 C98.6418,117.588641 117.4356,98.7730885 117.4356,75.6208229 C117.4356,64.919151 113.4531,55.1266302 106.8156,47.7822396 C115.479,55.4059531 120.9285,66.6671719 120.9285,79.1177656 Z" id="Path" fill="#F3F9FF"></path>
                <path d="M110.3094,51.2791823 C102.9735,44.634901 93.1932,40.6477917 82.503,40.6477917 C59.3775,40.6477917 40.5837,59.4633438 40.5837,82.6156094 C40.5837,93.3172813 44.5662,103.109802 51.2037,110.454193 C42.5403,102.830479 37.0908,91.5683594 37.0908,79.1186667 C37.0908,55.966401 55.8846,37.150849 79.0101,37.150849 C91.4463,37.150849 102.6945,42.6057552 110.3094,51.2791823 Z" id="Path" fill="#D0E7FE"></path>
            </g>
            <g id="plant_15_" transform="translate(0.754325, 311.357143)">
                <path d="M101.54126,152.405538 C122.966356,150.585694 210.516055,171.20152 211.364349,191.153247 C211.783204,201.008847 178.940159,194.484334 113.176952,232.141347 C90.1127266,245.349212 60.8851384,238.069834 53.4999896,205.483577 C46.4535536,174.387383 80.1161626,154.22387 101.54126,152.405538 Z" id="Path" fill="#44D690"></path>
                <path d="M214.006007,191.809783 C213.900159,191.868781 213.768606,191.874832 213.652173,191.811296 C213.522131,191.740196 200.41818,184.711936 177.592869,182.373217 C156.52463,180.214515 122.629156,181.722732 80.7935882,201.169199 C80.6121349,201.255426 80.394391,201.17525 80.3097128,200.993719 C80.2250346,200.809163 80.2885433,200.579224 80.4866298,200.509638 C122.493066,180.982995 156.542775,179.476291 177.709301,181.653145 C200.666166,184.013043 213.868405,191.100301 213.999958,191.171401 C214.176875,191.268217 214.241896,191.489079 214.145121,191.666071 C214.113367,191.728094 214.063467,191.778015 214.006007,191.809783 Z" id="Path" fill="#F3F9FF"></path>
                <path d="M79.4961972,169.997367 C110.452128,182.238582 221.050931,197.662633 220.921004,170.693235 C220.790848,143.723837 78.0521315,72.2249796 47.0946886,59.9837653 C16.1372457,47.742551 -5.70519377,63.1439107 1.71322145,90.7774082 C13.4093979,134.338704 48.5387543,157.756153 79.4961972,169.997367 Z" id="Path" fill="#8AE6B9"></path>
                <path d="M224.489471,171.638707 C224.422938,171.675013 224.347332,171.693166 224.26719,171.682577 C223.195104,171.550967 116.007623,157.898352 34.9841938,105.078995 C34.8163495,104.968564 34.7679619,104.743163 34.8768339,104.573735 C34.9857059,104.402793 35.2125225,104.357411 35.3818789,104.466329 C116.261657,157.193408 223.284318,170.82787 224.356405,170.95948 C224.556003,170.983684 224.698142,171.165214 224.673948,171.364898 C224.658827,171.484406 224.587758,171.582735 224.489471,171.638707 Z" id="Path" fill="#F3F9FF"></path>
                <path d="M114.19309,111.769911 C135.184211,132.540038 213.706609,184.976668 218.66482,168.737242 C223.623031,152.497816 136.655495,40.8685918 115.664374,20.099977 C94.6732526,-0.668637755 74.1221557,-10.6573597 67.3478997,18.5615051 C61.0786886,45.592926 93.2019689,91.0012959 114.19309,111.769911 Z" id="Path" fill="#FFCB01"></path>
                <path d="M221.276235,170.901995 C221.152242,170.971582 220.993471,170.964018 220.874014,170.87174 C220.127031,170.289329 145.513439,111.857651 94.4827266,45.0468214 C94.3602457,44.8864694 94.392,44.6580434 94.5522837,44.5355102 C94.7050069,44.4084388 94.9393841,44.4432321 95.0633772,44.6035842 C146.03663,111.340288 220.576128,169.714482 221.323111,170.296893 C221.481882,170.419426 221.510612,170.649365 221.386619,170.808204 C221.354865,170.847536 221.317062,170.879304 221.276235,170.901995 Z" id="Path" fill="#F3F9FF"></path>
            </g>
            <g id="presentation" transform="translate(106.602076, 269.000000)">
                <path d="M297.885813,588.76126 C293.710875,588.76126 290.32526,585.375714 290.32526,581.197485 L290.32526,7.56377551 C290.32526,3.38554592 293.710875,0 297.885813,0 C302.060751,0 305.446367,3.38554592 305.446367,7.56377551 L305.446367,581.197485 C305.446367,585.375714 302.060751,588.76126 297.885813,588.76126 Z" id="Path" fill="#7491C5"></path>
                <path d="M447.577215,588.762773 C446.281336,588.762773 444.968824,588.428454 443.76972,587.726536 L294.070758,500.190962 C290.465886,498.082181 289.251661,493.451638 291.358031,489.843717 C293.465913,486.235796 298.095997,485.021054 301.700869,487.131347 L451.39983,574.666921 C455.004702,576.775702 456.218927,581.406245 454.112557,585.014166 C452.706294,587.420959 450.176533,588.762773 447.577215,588.762773 Z" id="Path" fill="#7491C5"></path>
                <path d="M147.438356,588.762773 C144.839038,588.762773 142.309277,587.420959 140.903014,585.014166 C138.796644,581.406245 140.010869,576.775702 143.61574,574.666921 L293.314702,487.131347 C296.918062,485.022566 301.549657,486.237309 303.65754,489.843717 C305.76391,493.451638 304.549685,498.082181 300.944813,500.190962 L151.245851,587.726536 C150.046747,588.429967 148.734235,588.762773 147.438356,588.762773 Z" id="Path" fill="#7491C5"></path>
                <path d="M570.31373,72.6878827 L25.4578962,72.6878827 C11.7793426,72.6878827 0.691034602,61.5948495 0.691034602,47.9104668 L0.691034602,47.9104668 C0.691034602,34.2260842 11.7793426,23.133051 25.4578962,23.133051 L570.315242,23.133051 C583.993796,23.133051 595.082104,34.2260842 595.082104,47.9104668 L595.082104,47.9104668 C595.082104,61.5948495 583.992284,72.6878827 570.31373,72.6878827 Z" id="Path" fill="#224380"></path>
                <path d="M548.858391,419.562628 L46.9132353,419.562628 C35.0628235,419.562628 25.4578962,409.952094 25.4578962,398.098145 L25.4578962,72.6878827 L570.315242,72.6878827 L570.315242,398.096633 C570.315242,409.952094 560.708803,419.562628 548.858391,419.562628 Z" id="Path" fill="#F3F9FF"></path>
                <rect id="Rectangle" fill="#AEC1E8" x="25.4578962" y="72.6878827" width="544.857346" height="12.3879515"></rect>
            </g>
            <g id="man_on_ladder_2_" transform="translate(79.384083, 495.913265)">
                <rect id="Rectangle" fill="#183168" x="9.34182007" y="25.9936709" width="75.4452526" height="6.05102041"></rect>
                <rect id="Rectangle" fill="#183168" x="11.1321592" y="74.6196709" width="74.1614706" height="6.05102041"></rect>
                <rect id="Rectangle" fill="#183168" x="8.70068512" y="137.391444" width="76.0863875" height="6.05102041"></rect>
                <rect id="Rectangle" fill="#183168" x="9.7833564" y="194.519128" width="64.5368858" height="6.05102041"></rect>
                <rect id="Rectangle" fill="#183168" x="9.73496886" y="315.177987" width="74.8026055" height="6.05102041"></rect>
                <rect id="Rectangle" fill="#183168" x="9.34182007" y="250.781515" width="74.8026055" height="6.05102041"></rect>
                <rect id="Rectangle" fill="#183168" x="6.15277855" y="0.904627551" width="6.04844291" height="363.633046"></rect>
                <rect id="Rectangle" fill="#183168" x="79.8379343" y="0.904627551" width="6.04844291" height="363.633046"></rect>
                <path d="M32.5995952,299.380286 L29.5980554,308.114934 C29.5980554,308.114934 23.4982007,313.63649 20.3363772,305.767138 C20.3363772,305.767138 21.3192491,300.45888 21.6776194,298.519528 C22.0375017,296.578663 32.5995952,299.380286 32.5995952,299.380286 Z" id="Path" fill="#F1B282"></path>
                <path d="M19.3822353,299.927903 L34.6893322,299.927903 C34.6893322,299.927903 49.0165813,243.645849 53.0025052,228.736135 C56.1416471,216.99413 59.7918824,178.181372 58.3432803,160.103949 C56.9612111,142.86913 27.653481,152.202829 26.124737,164.307895 C21.6428408,199.791079 29.9836436,226.10848 29.5557163,232.313801 C22.2839758,250.714954 19.3822353,299.927903 19.3822353,299.927903 Z" id="Path" fill="#102B5E"></path>
                <path d="M61.3735502,49.3112781 C63.2243737,53.289824 62.3171073,55.4560893 62.7707405,57.1322219 C63.2258858,58.8098673 64.963301,62.1939005 65.0358824,63.7989337 C65.1099758,65.4039668 63.4043149,65.6233163 63.036872,67.7215077 C62.667917,69.819699 63.6341557,72.5532474 62.3564221,74.7512806 C61.0786886,76.9493138 56.1144291,76.4425408 56.4077785,78.5634235 C56.6996159,80.6858189 59.828173,88.5612219 59.828173,88.5612219 L39.4207266,88.8894898 C39.4207266,88.8894898 40.2357543,77.4258316 39.1969343,72.6863699 C38.1596263,67.9469082 35.8581938,50.541148 40.095128,48.4293418 C44.3320623,46.3175357 59.4093183,45.0876658 61.3735502,49.3112781 Z" id="Path" fill="#F1B282"></path>
                <path d="M50.1688097,40.2861811 C33.1908304,40.8156454 27.2346263,45.0952296 27.4281765,58.3666301 C27.5430969,66.2768265 31.9070484,77.226148 37.6349239,77.1899319 C41.7660104,77.164125 49.9087266,76.7042474 51.3361592,74.4457041 C54.7232872,69.0860128 51.8230588,61.6871276 54.092737,59.1335969 C57.3180692,55.5029847 64.6502941,57.37275 63.6417163,44.8683163 C62.6361626,32.3638827 55.8195675,40.1091888 50.1688097,40.2861811 Z" id="Path" fill="#0B224E"></path>
                <path d="M11.6160346,36.5027806 C11.6160346,36.5027806 8.72185467,28.4397959 9.23899654,24.1269311 C10.0721696,17.1803597 26.5980277,17.1485918 27.3087197,23.1648189 C28.063263,29.5516709 25.0874291,31.2232653 23.1428547,32.8903214 C21.1982803,34.5573776 18.9769896,37.4754821 18.4205329,38.5873571 C17.8640761,39.6992321 12.4492076,39.6977194 11.6160346,36.5027806 Z" id="Path" fill="#F1B282"></path>
                <path d="M130.49818,81.8203852 C130.49818,81.8203852 136.567792,75.7754158 137.948349,71.6592092 C140.171152,65.0257781 125.255692,57.9112908 122.034896,63.0410434 C118.616014,68.4884745 120.589318,71.2749694 121.632675,73.6136888 C122.674519,75.9539209 123.432087,79.542176 123.457792,80.7856607 C123.483498,82.0276327 128.376689,84.3512245 130.49818,81.8203852 Z" id="Path" fill="#F1B282"></path>
                <path d="M72.9366609,286.06199 L68.540955,294.183972 C68.540955,294.183972 61.617,298.626934 59.7918824,290.344599 C59.7918824,290.344599 61.6321211,285.270819 62.3050104,283.416181 C62.9778997,281.563056 72.9366609,286.06199 72.9366609,286.06199 Z" id="Path" fill="#F1B282"></path>
                <path d="M72.4921003,160.85125 C72.4921003,160.85125 101.970699,202.603291 102.688952,210.983954 C103.98483,226.10848 75.1382941,286.170908 75.1382941,286.170908 L60.2182976,282.968406 C60.2182976,282.968406 70.2118374,237.694671 78.1065675,222.257005 C62.9219516,201.716816 38.865782,190.245594 38.865782,163.416883 C38.8642699,156.143556 72.4921003,160.85125 72.4921003,160.85125 Z" id="Path" fill="#0B224E"></path>
                <path d="M41.4303218,85.4857908 C45.8003218,85.1908036 53.9339654,85.6370663 58.6698962,85.5478138 C70.7985363,85.3193878 87.1852803,96.1068444 100.320986,99.9628571 C108.903727,90.6700026 121.489024,75.9221531 121.489024,75.9221531 L132.073799,82.4617934 C132.073799,82.4617934 113.181488,115.061666 101.566965,116.929918 C94.5386747,118.061459 83.2401834,117.628811 74.4714533,113.990635 C74.4714533,124.908189 88.4524291,167.693441 78.1791488,169.873321 C67.9058685,172.053202 51.7187232,168.316696 41.7569377,169.873321 C31.7951522,171.429946 20.9003945,178.904469 23.3908408,160.218918 C25.8812872,141.533367 36.7775571,143.542306 13.4305675,107.892719 C7.3155917,98.5559949 0.196574394,84.9563265 1.27622145,73.5516658 C3.38561592,51.2597066 8.79897232,34.5029184 8.79897232,34.5029184 L20.3832526,36.3711709 C20.3832526,36.3711709 19.3837474,59.8400536 16.893301,73.544102 C19.3837474,80.1382015 23.1413426,84.6779796 27.4312007,89.3675204 C29.7779965,91.9376913 34.5895329,85.2407245 41.4303218,85.4857908 Z" id="Path" fill="#1B90FB"></path>
                <path d="M20.0762941,303.684074 C18.8696298,303.526747 17.5934083,304.823179 17.643308,309.639791 C17.6932076,314.456403 17.4724394,317.006908 21.2073529,317.522758 C23.5541488,317.846487 32.3969723,315.507768 41.009955,315.662069 C44.1203668,315.718041 49.8421938,314.256719 51.8472526,311.582168 C52.2570346,311.036064 52.3477612,310.249431 52.0786055,309.580793 C51.8094498,308.912156 51.2318235,308.49161 50.6088339,308.509763 C43.6697578,308.704908 43.5487889,309.379597 37.9328097,305.388949 C35.8944844,303.93973 34.1918478,302.585814 33.116737,302.511689 C31.0239758,302.367977 30.057737,305.155985 26.6479273,304.791411 C23.2366055,304.429862 22.164519,303.957883 20.0762941,303.684074 Z" id="Path" fill="#0B224E"></path>
                <path d="M59.6845225,288.004367 C58.42191,287.756276 56.7767336,289.436946 56.1431592,293.887472 C55.5095848,298.337997 54.2273149,301.895997 58.1315848,302.690194 C60.5842284,303.189403 73.347955,301.889946 82.4992491,302.765832 C85.8047232,303.081997 89.6787509,301.478477 92.1964152,299.180602 C92.7105329,298.711648 92.9192042,297.993089 92.7271661,297.353194 C92.535128,296.713298 91.9801834,296.276112 91.3133426,296.238293 C83.8949273,295.828337 83.6696228,296.441003 78.2562664,292.279413 C76.2905225,290.768171 74.672564,289.373411 73.5369689,289.214571 C71.3292872,288.904457 70.001654,290.802964 66.4224879,290.178196 C62.8433218,289.551916 61.8680104,288.43399 59.6845225,288.004367 Z" id="Path" fill="#0B224E"></path>
            </g>
            <g id="text" transform="translate(428.681661, 386.994898)" fill="#C3D3F3">
                <path d="M178.905381,12.6057883 L6.11648789,12.6057883 C3.05446367,12.6057883 0.571577855,10.1218444 0.571577855,7.05851531 L0.571577855,7.05851531 C0.571577855,3.99518622 3.05446367,1.51124235 6.11648789,1.51124235 L178.905381,1.51124235 C181.967405,1.51124235 184.450291,3.99518622 184.450291,7.05851531 L184.450291,7.05851531 C184.450291,10.1233571 181.967405,12.6057883 178.905381,12.6057883 Z" id="Path"></path>
                <path d="M178.905381,45.8864005 L6.11648789,45.8864005 C3.05446367,45.8864005 0.571577855,43.4024566 0.571577855,40.3391276 L0.571577855,40.3391276 C0.571577855,37.2757985 3.05446367,34.7918546 6.11648789,34.7918546 L178.905381,34.7918546 C181.967405,34.7918546 184.450291,37.2757985 184.450291,40.3391276 L184.450291,40.3391276 C184.450291,43.4039694 181.967405,45.8864005 178.905381,45.8864005 Z" id="Path"></path>
                <path d="M178.905381,79.1670128 L6.11648789,79.1670128 C3.05446367,79.1670128 0.571577855,76.6830689 0.571577855,73.6197398 L0.571577855,73.6197398 C0.571577855,70.5564107 3.05446367,68.0724668 6.11648789,68.0724668 L178.905381,68.0724668 C181.967405,68.0724668 184.450291,70.5564107 184.450291,73.6197398 L184.450291,73.6197398 C184.450291,76.6845816 181.967405,79.1670128 178.905381,79.1670128 Z" id="Path"></path>
                <path d="M178.905381,112.447625 L6.11648789,112.447625 C3.05446367,112.447625 0.571577855,109.963681 0.571577855,106.900352 L0.571577855,106.900352 C0.571577855,103.837023 3.05446367,101.353079 6.11648789,101.353079 L178.905381,101.353079 C181.967405,101.353079 184.450291,103.837023 184.450291,106.900352 L184.450291,106.900352 C184.450291,109.965194 181.967405,112.447625 178.905381,112.447625 Z" id="Path"></path>
                <path d="M178.905381,145.728237 L6.11648789,145.728237 C3.05446367,145.728237 0.571577855,143.244293 0.571577855,140.180964 L0.571577855,140.180964 C0.571577855,137.117635 3.05446367,134.633691 6.11648789,134.633691 L178.905381,134.633691 C181.967405,134.633691 184.450291,137.117635 184.450291,140.180964 L184.450291,140.180964 C184.450291,143.245806 181.967405,145.728237 178.905381,145.728237 Z" id="Path"></path>
                <path d="M178.905381,179.008849 L6.11648789,179.008849 C3.05446367,179.008849 0.571577855,176.524906 0.571577855,173.461577 L0.571577855,173.461577 C0.571577855,170.398247 3.05446367,167.914304 6.11648789,167.914304 L178.905381,167.914304 C181.967405,167.914304 184.450291,170.398247 184.450291,173.461577 L184.450291,173.461577 C184.450291,176.526418 181.967405,179.008849 178.905381,179.008849 Z" id="Path"></path>
                <path d="M178.905381,212.289462 L6.11648789,212.289462 C3.05446367,212.289462 0.571577855,209.805518 0.571577855,206.742189 L0.571577855,206.742189 C0.571577855,203.67886 3.05446367,201.194916 6.11648789,201.194916 L178.905381,201.194916 C181.967405,201.194916 184.450291,203.67886 184.450291,206.742189 L184.450291,206.742189 C184.450291,209.807031 181.967405,212.289462 178.905381,212.289462 Z" id="Path"></path>
                <path d="M178.905381,245.570074 L6.11648789,245.570074 C3.05446367,245.570074 0.571577855,243.08613 0.571577855,240.022801 L0.571577855,240.022801 C0.571577855,236.959472 3.05446367,234.475528 6.11648789,234.475528 L178.905381,234.475528 C181.967405,234.475528 184.450291,236.959472 184.450291,240.022801 L184.450291,240.022801 C184.450291,243.087643 181.967405,245.570074 178.905381,245.570074 Z" id="Path"></path>
            </g>
            <g id="piece_of_chart" transform="translate(613.000000, 635.086735)">
                <path d="M59.3896609,1.37055612 C74.8343599,8.83297704 84.4786021,19.2210663 84.4786021,30.7815408 C84.4786021,42.2920944 74.8328478,52.7301046 59.3896609,60.1426046 L0.54133564,30.7815408 L59.3896609,1.37055612 Z" id="Path" fill="#7266D5"></path>
                <path d="M59.3896609,60.1426046 L59.3896609,60.1426046 L59.3896609,80.561773 C71.5062042,74.7452296 84.4786021,64.7005357 84.4786021,51.2007092 L84.4786021,30.7815408 C84.4786021,44.3085969 71.5303979,54.3139592 59.3896609,60.1426046 Z" id="Path" fill="#877CD8"></path>
                <polygon id="Path" fill="#5F50D0" points="59.3896609 60.1426046 59.3896609 80.5602602 0.54133564 51.1991964 0.54133564 30.7800281"></polygon>
            </g>
            <g id="woman_8_" transform="translate(640.217993, 601.806122)">
                <path d="M45.434391,111.813781 C45.434391,111.813781 29.2714394,146.787166 26.0536678,170.389171 C23.7567716,187.244288 23.5042491,244.067908 18.8136817,247.509426 C13.0812699,251.714885 6.19814187,256.266765 6.19814187,256.266765 L9.30704152,258.445133 C9.30704152,258.445133 27.7305986,256.32425 28.5350415,254.477176 C29.3394844,252.631615 30.6096574,245.377954 31.5214602,240.95012 C35.8415606,219.974258 42.8063426,206.674115 42.1833529,181.999566 C46.7907543,173.57352 52.9389965,163.522776 52.9389965,163.522776 C52.9389965,163.522776 54.4420346,111.17086 45.434391,111.813781 Z" id="Path" fill="#F1B282"></path>
                <path d="M28.9039965,251.680092 C30.7215536,251.887339 29.2064187,258.218219 27.0425882,260.107651 C27.1106332,260.112189 19.0404983,260.018398 19.0404983,260.018398 L19.1811246,257.944411 C19.1811246,257.944411 11.8957751,260.437431 8.03686851,260.174212 C4.06908997,259.904941 0.825612457,259.429936 0.869463668,258.78399 C0.931460208,257.876337 6.27677163,255.106482 7.42446367,255.185145 C9.01217993,255.292551 10.4849758,257.325694 11.839827,257.349898 C13.1977024,257.374102 27.422128,251.512176 28.9039965,251.680092 Z" id="Path" fill="#0B224E"></path>
                <path d="M93.0038824,226.50936 C85.5264948,210.773681 82.1620484,187.794931 69.3453979,172.45862 C71.5530796,156.375008 81.6282734,147.446727 81.6282734,128.78538 C81.6282734,119.418401 77.8207785,112.887837 77.8207785,112.887837 L45.4359031,111.815293 C45.4359031,111.815293 42.0291176,146.536048 50.9505709,177.716957 C54.4299377,189.877995 88.6006159,228.922204 86.4549308,238.771753 C84.941308,245.719837 81.0582076,252.539337 81.0582076,252.539337 L85.1439308,252.693638 C85.1439308,252.693638 99.4122076,240.63698 99.0916401,238.649219 C98.7695606,236.658434 94.9439204,230.592286 93.0038824,226.50936 Z" id="Path" fill="#F1B282"></path>
                <path d="M69.1397509,15.0882194 C66.1971834,16.073023 66.4194637,21.1210867 65.5016125,22.5884592 C64.5852734,24.0573444 63.0837474,26.0889745 63.1714498,27.2371556 C63.2606644,28.3853367 66.2077682,28.3429796 65.9764152,31.1521658 C65.7450623,33.961352 65.7148201,37.4573291 70.0092145,38.3362398 C74.303609,39.2151505 73.6246713,43.0560357 73.7864671,46.6896735 C73.948263,50.3233112 74.4911107,51.3716505 75.9639066,51.3035765 C76.789519,51.2657577 80.9856263,50.4534082 85.4856678,47.1268597 C89.0179585,44.5143316 93.1429965,36.8749184 92.4035744,32.4985179 C90.977654,24.0694464 87.8400242,17.2363316 80.9795779,15.3196709 C74.1191315,13.4030102 71.6256609,14.2577168 69.1397509,15.0882194 Z" id="Path" fill="#F1B282"></path>
                <path d="M97.9817509,236.408829 C99.622391,235.601018 101.766564,241.747342 100.965145,244.50812 C101.024118,244.474839 94.1833287,248.755936 94.1833287,248.755936 L93.1823114,246.934579 C93.1823114,246.934579 88.396481,252.967446 85.0063287,254.832673 C81.5209135,256.749334 78.5360069,258.101737 78.2245121,257.534454 C77.786,256.737232 80.790564,251.518227 81.7991419,250.963046 C83.193308,250.196079 85.5310311,251.111296 86.6847716,250.398788 C87.8354879,249.687793 96.6435329,237.06839 97.9817509,236.408829 Z" id="Path" fill="#0B224E"></path>
                <path d="M79.3495225,109.314709 C79.3495225,115.970832 84.2895882,118.858681 83.4443183,132.323714 C82.5990484,145.788747 74.8509931,165.465153 71.6664879,167.570908 C68.4804706,169.675151 27.585436,168.982309 26.1459066,166.213967 C22.3248028,158.865003 42.8683391,112.359885 46.8436782,109.316222 C50.8205294,106.272559 79.3495225,109.314709 79.3495225,109.314709 Z" id="Path" fill="#0B224E"></path>
                <path d="M79.3495225,109.314709 C79.3495225,94.8557959 93.4711246,86.6596888 93.5951176,61.1924566 C93.5951176,49.287074 86.3400104,45.0634617 75.1050277,45.0604362 C67.6200796,45.0574107 51.8759827,61.0865638 51.8638858,66.1512679 C51.8517889,71.2159719 54.8034291,77.8025077 54.8034291,83.0396658 C54.8034291,92.4928724 46.5518408,102.135173 46.5518408,109.314709 L79.3495225,109.314709 L79.3495225,109.314709 Z" id="Path" fill="#2CCD7F"></path>
                <path d="M82.8576194,64.8805536 C82.8576194,64.8805536 81.008308,93.4383444 52.1587474,104.936796 C49.5367474,105.979084 48.670308,106.880686 46.6924671,107.653704 C47.277654,103.719028 49.8059031,99.1535332 51.8774948,94.3520485 L75.109564,79.2940842 C75.109564,79.2940842 80.2824948,70.5594362 82.8576194,64.8805536 Z" id="Path" fill="#1EAF69"></path>
                <path d="M75.1050277,79.2910587 C75.1050277,79.2910587 64.8544291,92.7001199 55.8362007,97.6528801 C37.5729273,107.683959 22.5138166,109.780638 22.5138166,109.780638 C22.5138166,109.780638 5.81406574,113.461171 3.27220761,106.186332 C2.36342907,103.585906 6.29340484,106.986579 14.5510415,105.591819 C17.2320138,105.054791 14.2289619,103.01711 13.2642353,101.407538 C12.2995087,99.7979668 14.8731211,99.1550459 18.6261799,101.837161 C22.3792388,104.519276 35.9005329,98.512125 48.7685952,88.1058827 C61.3932076,77.8962985 64.2299273,68.7864872 64.2299273,68.7864872 C64.2299273,68.7864872 71.0298893,76.3956454 75.1050277,79.2910587 Z" id="Path" fill="#F1B282"></path>
                <path d="M68.4094014,16.5192857 C68.4094014,16.5192857 63.2742734,16.1774031 63.2742734,11.0809311 C63.2742734,1.93481378 84.1066228,-4.65928571 92.4096228,6.45190051 C100.712623,17.5630867 100.514536,32.3608571 110.638118,40.021449 C120.761699,47.6820408 109.513107,67.0740485 98.8285329,67.3554209 C88.1439585,67.6367934 77.1766194,56.9930485 80.5516505,47.7107832 C83.9266817,38.4270051 87.6752042,25.955852 81.58291,28.2068316 C75.4875917,30.4578112 78.0158408,16.0836122 68.4094014,16.5192857 Z" id="Path" fill="#0B224E"></path>
                <path d="M76.8242976,37.5541454 C76.8242976,37.5541454 75.8217682,39.7642806 73.4689239,41.5765612 C73.1619654,40.2665153 72.487564,39.2015357 71.0041834,38.6297143 C72.0868547,38.8142704 74.0616713,38.8339362 76.8242976,37.5541454 Z" id="Path" fill="#CD916A"></path>
            </g>
            <g id="pie_chart" transform="translate(189.768166, 414.224490)">
                <g id="Group" transform="translate(78.629758, 0.000000)">
                    <path d="M3.91031834,0.795709184 C25.8253391,0.795709184 45.6657439,5.13731633 60.2545882,12.0627092 L1.34577855,41.423773 L1.34577855,0.844117347 C2.26211765,0.795709184 3.05597578,0.795709184 3.91031834,0.795709184 Z" id="Path" fill="#1B90FB"></path>
                    <polygon id="Path" fill="#1277D7" points="60.2561003 12.0611964 60.2561003 32.4803648 1.34729066 61.8429413 1.34729066 41.423773"></polygon>
                </g>
                <g id="Group" transform="translate(0.000000, 19.665816)">
                    <path d="M79.9770484,1.49157653 L79.9770484,42.1196403 L23.693263,70.2130153 C9.77428374,62.9457398 1.16734948,53.0447577 1.16734948,42.1196403 C1.16734948,31.1461148 9.77428374,21.2935408 23.7537474,13.9778571 C37.978173,6.56384439 57.8775502,1.83194643 79.9770484,1.49157653 Z" id="Path" fill="#FFD255"></path>
                    <polygon id="Path" fill="#FFBC00" points="79.9770484 42.1196403 79.9770484 62.5388087 23.693263 90.6321837 23.693263 70.2130153"></polygon>
                    <path d="M2.72935986,50.096398 C1.7056609,47.5186633 1.16734948,44.8501633 1.16734948,42.1196403 L1.16734948,42.1196403 L1.16734948,62.5388087 C1.16734948,73.463926 9.77428374,83.3649082 23.693263,90.6321837 L23.693263,70.2130153 C13.2536505,64.7625587 5.80348097,57.8311148 2.72935986,50.096398 Z" id="Path" fill="#FFC31B"></path>
                </g>
                <g id="Group" transform="translate(84.678201, 34.793367)">
                    <path d="M59.2943979,0.851681122 C74.7390969,8.31410204 84.3833391,18.7021913 84.3833391,30.2626658 C84.3833391,41.7732194 74.7375848,52.2112296 59.2943979,59.6237296 L0.446072664,30.2626658 L59.2943979,0.851681122 Z" id="Path" fill="#DAE7FF"></path>
                    <path d="M59.2943979,59.6237296 L59.2943979,59.6237296 L59.2943979,80.042898 C71.4517682,74.2066888 84.3833391,64.1665332 84.3833391,50.6818342 L84.3833391,30.2626658 C84.3833391,43.7912347 71.4351349,53.7965969 59.2943979,59.6237296 Z" id="Path" fill="#AEC1E8"></path>
                    <polygon id="Path" fill="#C3D3F3" points="59.2943979 59.6237296 59.2943979 80.042898 0.446072664 50.6818342 0.446072664 30.2626658"></polygon>
                    <path d="M52.3296159,34.7570612 C52.3568339,33.139926 52.5397993,31.8601352 52.8815363,30.9237398 C53.2217612,29.9843189 53.9158201,28.9465689 54.9637128,27.802926 L57.6386367,25.0497117 C58.7817924,23.7593316 59.3533702,22.373648 59.3533702,20.8941735 C59.3533702,19.4676454 58.9783668,18.3512321 58.229872,17.5419082 C57.4813772,16.7356097 56.3926574,16.3301913 54.9637128,16.3301913 C53.5755952,16.3301913 52.4596574,16.6977908 51.6158997,17.4329898 C50.7721419,18.1681888 50.350263,19.1560179 50.350263,20.3949643 L46.5730104,20.3949643 C46.6002284,18.1893673 47.386526,16.4088546 48.930391,15.0549388 C50.4757682,13.6995102 52.4853633,13.0233087 54.9622007,13.0233087 C57.534301,13.0233087 59.5378478,13.7146378 60.9743529,15.0927577 C62.4108581,16.4708776 63.1275986,18.3678724 63.1275986,20.7701276 C63.1275986,23.1496913 62.0252699,25.4944617 59.8206125,27.8059515 L57.5947855,30.008523 C56.6013287,31.1113214 56.1038443,32.6936633 56.1038443,34.7600867 L52.3296159,34.7600867 L52.3296159,34.7570612 Z M52.166308,41.2452679 C52.166308,40.6250383 52.3538097,40.107676 52.727301,39.6901556 C53.1023045,39.2711224 53.655737,39.0608495 54.3906228,39.0608495 C55.1255087,39.0608495 55.6834775,39.2711224 56.0645294,39.6901556 C56.4455813,40.1091888 56.6361073,40.626551 56.6361073,41.2452679 C56.6361073,41.8654974 56.4455813,42.3752959 56.0645294,42.7807143 C55.6834775,43.1861327 55.1255087,43.3903546 54.3906228,43.3903546 C53.655737,43.3903546 53.1007924,43.1861327 52.727301,42.7807143 C52.3538097,42.3752959 52.166308,41.8639847 52.166308,41.2452679 Z" id="Shape" fill="#7266D5"></path>
                </g>
                <g id="Group" transform="translate(24.193772, 77.150510)">
                    <path d="M57.4783529,0.597538265 L116.387163,29.958602 C101.796806,36.9339158 81.9579135,41.225602 60.0428927,41.225602 C59.2490346,41.225602 58.394692,41.225602 57.5403495,41.1771939 C35.4423633,40.8852321 15.6019585,36.1533342 1.19607958,28.6909133 L57.4783529,0.597538265 Z" id="Path" fill="#7CE3B0"></path>
                    <path d="M60.0428927,41.225602 C59.2490346,41.225602 58.394692,41.225602 57.5403495,41.1771939 C35.4423633,40.8837194 15.6019585,36.1533342 1.19607958,28.6909133 L1.19607958,49.1100816 C15.6034706,56.5725026 35.4423633,61.3028878 57.5403495,61.5963622 C58.394692,61.6447704 59.2490346,61.6447704 60.0428927,61.6447704 C76.4795363,61.6447704 91.7488304,59.2304133 104.511045,55.080926 C108.764612,53.6982679 112.741464,52.121977 116.388675,50.3777704 L116.388675,29.958602 C101.798318,36.9339158 81.9579135,41.225602 60.0428927,41.225602 Z" id="Path" fill="#2CCD7F"></path>
                </g>
            </g>
            <g id="man_hand_up" transform="translate(289.567474, 538.270408)">
                <path d="M50.3517751,58.9838342 C48.6128478,62.7203393 49.4656782,64.7565077 49.039263,66.3312857 C48.6113356,67.9060638 46.9797682,71.085875 46.9102111,72.5940918 C46.840654,74.1023087 48.4419792,74.3080434 48.7882526,76.2791633 C49.134526,78.2502832 48.2257474,80.8189413 49.4278754,82.883852 C50.6284913,84.9487628 55.2918408,84.4722449 55.0166367,86.4660561 C54.7414325,88.4598673 51.8034014,95.8587526 51.8034014,95.8587526 L70.9754533,96.1658418 C70.9754533,96.1658418 70.2103253,85.3965383 71.1856367,80.9445 C72.1609481,76.4924617 74.3217543,60.1395791 70.3418789,58.1563571 C66.3620035,56.1731352 52.1980623,55.0158776 50.3517751,58.9838342 Z" id="Path" fill="#F1B282"></path>
                <path d="M60.8775779,50.5048418 C76.8273218,51.0025383 82.4236436,55.0234413 82.2406782,67.4915689 C82.1318062,74.9222219 78.032474,85.2089566 72.650872,85.1757566 C68.7692837,85.1514719 61.1195156,84.7203367 59.7782734,82.5979413 C56.5967924,77.5634923 59.3201038,70.6123827 57.1880277,68.2131531 C54.1577578,64.8018903 47.2700934,66.558199 48.2166747,54.8116556 C49.1662803,43.0620867 55.5700692,50.3384388 60.8775779,50.5048418 Z" id="Path" fill="#0B224E"></path>
                <polygon id="Path" fill="#F1B282" points="43.5518131 307.211819 43.5518131 314.297564 32.8551419 314.297564 32.8521176 304.196898"></polygon>
                <polygon id="Path" fill="#F1B282" points="80.4337059 307.508319 80.4337059 315.882931 91.3118304 315.882931 91.3118304 305.60376"></polygon>
                <path d="M86.7906194,178.414337 C86.7906194,178.414337 90.0718997,222.981615 90.6752318,235.846084 C91.278564,248.710554 91.3118304,305.60376 91.3118304,305.60376 L79.9589031,305.703602 C79.9589031,305.703602 71.8630623,269.011727 72.3000623,247.964765 C69.6886471,239.522079 55.8981972,190.272824 55.6970865,180.222079 C55.4974879,170.172847 81.7673875,173.388964 86.7906194,178.414337 Z" id="Path" fill="#0B224E"></path>
                <path d="M36.1832976,178.414337 C36.1832976,178.414337 31.477609,223.585204 30.8757889,236.449673 C30.2724567,249.314143 32.5663287,305.605273 32.5663287,305.605273 L44.3108927,306.402495 C44.3108927,306.402495 50.214173,275.84938 50.7207301,247.666753 C53.3321453,239.224066 69.4512457,189.613263 69.6523564,179.564031 C69.8549792,169.511773 41.2065294,173.388964 36.1832976,178.414337 Z" id="Path" fill="#102B5E"></path>
                <path d="M89.7452837,124.342418 C89.7452837,124.342418 98.6622007,135.414273 96.8537163,144.15951 C95.0452318,152.903235 83.8692215,170.626673 81.1564948,174.546222 C78.4437682,178.46577 85.6308304,182.68787 85.6308304,182.68787 C85.6308304,182.68787 108.524187,152.938028 112.141156,143.893265 C115.758125,134.848503 99.540737,111.228344 99.540737,111.228344 L89.7452837,124.342418 Z" id="Path" fill="#F1B282"></path>
                <path d="M32.1444498,87.0030842 C32.1444498,87.0030842 22.1070588,85.7550612 16.619609,68.6896709 C11.1321592,51.6242806 9.53537024,28.7105791 11.5343806,23.6534388 C14.6992284,15.6434005 11.293955,7.76799745 10.4048339,4.47926786 C9.73043253,1.98624745 7.72386159,-1.44316837 7.16438062,1.24348469 C6.82869204,2.85608163 7.08575087,7.03884949 7.71630104,10.1203316 C8.27729412,12.8629566 -0.320567474,13.1352526 0.884584775,17.357352 C2.08973702,21.5779388 3.29640138,21.3071556 3.496,24.3054362 C3.69559862,27.3037168 2.08973702,61.4753418 4.30044291,69.517148 C6.51114879,77.5574413 14.9502388,98.4622041 21.1786228,102.281911 C27.408519,106.100105 32.1444498,87.0030842 32.1444498,87.0030842 Z" id="Path" fill="#F1B282"></path>
                <path d="M57.9486194,93.4368316 C62.6195294,93.3884235 82.3616471,91.9286148 92.1555882,100.97489 C101.949529,110.021166 105.416799,116.955635 106.020131,118.76489 C106.623464,120.574145 93.9640727,130.373773 91.4025571,128.413242 C88.8410415,126.452712 87.0325571,122.835714 84.0189204,122.835714 C81.0052837,122.835714 82.511346,139.268773 83.7180104,147.711459 C84.9246747,156.154145 92.1571003,179.973987 87.0325571,182.235556 C81.909526,184.497125 68.6483149,181.482204 60.9622561,183.441222 C53.2761972,185.40024 40.4671073,186.908457 36.2483183,182.084281 C32.0295294,177.260105 39.261955,159.017791 39.4131661,147.259145 C39.5643772,135.5005 39.1122561,117.106911 32.0295294,112.43401 C24.9468028,107.76111 16.3580138,106.252893 16.0555917,101.881031 C15.7546817,97.5091684 28.4125606,83.6387168 31.4261972,85.1469337 C34.4398339,86.6551505 39.9091384,92.9860306 45.5901384,93.1373061 C51.2711384,93.2855561 54.6325606,93.4701122 57.9486194,93.4368316 Z" id="Path" fill="#FFCB01"></path>
                <path d="M29.9352561,306.130199 C30.8470588,308.959051 34.3173529,308.515814 36.5159619,308.975691 C38.7145709,309.435569 46.3779481,310.503574 46.6546644,308.409921 C46.9313806,306.317781 45.8532457,304.788385 45.9953841,303.186378 C46.1375225,301.58437 47.8961073,299.546689 46.1178651,298.345561 C44.3396228,297.142921 41.3804221,298.266898 39.2302007,298.325895 C37.6576055,298.368253 31.8586609,295.897923 31.1540173,296.890291 C30.4493737,297.882658 31.4110761,299.785704 31.1676263,301.018599 C30.8062318,302.84752 29.2275882,303.935191 29.9352561,306.130199 Z" id="Path" fill="#355AA2"></path>
                <path d="M93.3304983,307.633878 C92.2720208,310.409783 88.8289446,309.786528 86.6106782,310.131436 C84.3908997,310.476344 76.6821592,311.140444 76.5143149,309.036202 C76.3464706,306.931959 77.5047474,305.461561 77.4457751,303.855015 C77.3868028,302.248469 75.73709,300.121536 77.5773287,299.014199 C79.4160554,297.906862 82.3117474,299.183628 84.4559204,299.354569 C86.0239792,299.480128 91.9438927,297.315375 92.5956125,298.344048 C93.2473322,299.372722 92.1873426,301.222821 92.3657716,302.466306 C92.6319031,304.310355 94.1515744,305.479714 93.3304983,307.633878 Z" id="Path" fill="#355AA2"></path>
                <path d="M45.0412422,312.934571 C43.5518131,311.426355 40.9661038,313.839199 38.3320069,313.839199 C35.69791,313.839199 34.2326747,312.031457 32.8551419,311.930102 C31.4791211,311.828747 30.7744775,315.044865 27.8621522,316.519801 C26.1322976,317.395686 22.0359896,317.828334 22.0359896,322.847656 C22.0359896,324.089628 44.313917,323.774974 45.0427543,323.369556 C46.4293599,322.593513 46.5291592,314.441276 45.0412422,312.934571 Z" id="Path" fill="#102B5E"></path>
                <path d="M92.6606332,312.934571 C91.1712042,311.426355 88.5854948,313.839199 85.9513979,313.839199 C83.317301,313.839199 81.8520657,312.031457 80.4745329,311.930102 C79.097,311.828747 78.3938685,315.044865 75.4815433,316.519801 C73.7516886,317.395686 69.6553806,317.828334 69.6553806,322.847656 C69.6553806,324.089628 91.933308,323.774974 92.6621453,323.369556 C94.0487509,322.593513 94.1500623,314.441276 92.6606332,312.934571 Z" id="Path" fill="#102B5E"></path>
            </g>
        </g>
        <g id="plant_28_" transform="translate(114.000000, 746.000000)" fill-rule="nonzero">
            <g id="Group" transform="translate(38.930233, 0.000000)">
                <path d="M5.34097674,137.54007 C5.34097674,126.764775 19.7413953,123.610845 19.7413953,116.252937 C19.7413953,108.893768 0.629162791,104.951986 0.629162791,91.5484155 C0.629162791,78.1448451 19.7413953,79.9852676 19.7413953,69.7356268 C19.7413953,59.4859859 10.1846512,59.4859859 10.1846512,46.8715282 C10.1846512,34.2570704 34.9266977,0.617676056 45.9226047,0.617676056 C56.9185116,0.617676056 67.9156744,32.1544507 67.9156744,42.6662887 C67.9156744,53.1781268 49.3271163,57.9090211 49.3271163,66.8451549 C49.3271163,75.7812887 67.9156744,76.3346761 67.9156744,85.1245845 C67.9156744,93.914493 45.3989302,101.844697 45.3989302,108.368113 C45.3989302,114.891528 61.6315814,119.143408 61.6315814,131.495669 C61.6315814,143.84793 45.9615349,168.55119 38.0674884,168.55119 C30.1746977,168.55119 5.34097674,148.315366 5.34097674,137.54007 Z" id="Path" fill="#9E95E3"></path>
                <path d="M39.1135814,178.590317 C38.7154884,178.590317 38.360093,178.302908 38.2897674,177.894486 C30.024,130.55781 30.4673023,97.3369225 32.2932558,77.8032324 C34.2774419,56.5715634 38.1742326,46.7026127 38.3387442,46.2929296 C38.5120465,45.8618169 39.0030698,45.6550845 39.4275349,45.8290423 C39.8570233,46.003 40.0642326,46.4920986 39.892186,46.9232113 C39.852,47.0215352 35.9037209,57.0505775 33.9496744,78.0818169 C32.143814,97.4970141 31.7193488,130.523775 39.9411628,177.604556 C40.0202791,178.062141 39.7163721,178.498296 39.2605116,178.577711 C39.2102791,178.586535 39.1613023,178.590317 39.1135814,178.590317 Z" id="Path" fill="#877CD8"></path>
            </g>
            <path d="M5.80311628,152.722296 C1.674,143.027303 -4.48451163,129.290944 8.10376744,121.179218 C20.6920465,113.067493 9.20009302,108.264746 8.79069767,96.5074718 C8.38130233,84.7501972 21.2320465,81.7298873 20.8465116,76.1544155 C20.4622326,70.5802042 19.8242791,60.7225986 21.0097674,56.5160986 C22.9952093,49.4771127 37.8477209,46.2815845 39.3634884,66.100162 C40.3153953,78.5532676 41.5963256,86.0725282 48.2132093,94.9557183 C54.830093,103.838908 40.2551163,113.231366 40.5238605,120.382542 C40.7938605,127.533718 47.9746047,126.474845 47.1897209,141.630599 C46.4048372,156.786352 36.4801395,168.247394 27.0439535,167.571732 C20.6367907,167.114148 9.57181395,161.572711 5.80311628,152.722296 Z" id="Path" fill="#8AE6B9"></path>
            <path d="M37.651814,101.438796 C37.3403721,101.278704 36.9636279,101.404761 36.807907,101.71612 C36.6973953,101.931676 34.0991163,106.926028 29.902186,105.337718 C30.4045116,101.995965 30.6293023,98.8659859 30.3894419,96.0360211 C30.3944651,96.0171127 30.4057674,96.0032465 30.4095349,95.9830775 C30.4371628,95.8444155 30.4070233,95.7120563 30.3505116,95.5935634 C30.2977674,95.0905986 30.2349767,94.5951972 30.1508372,94.113662 C28.8548372,86.7305423 29.7263721,77.169169 30.2462791,71.4550352 C30.550186,68.1158028 30.6895814,66.4795915 30.5112558,65.7799789 C30.4258605,65.4408873 30.0792558,65.2354155 29.7489767,65.3249155 C29.4124186,65.4093732 29.2089767,65.753507 29.2956279,66.0900775 C29.4262326,66.6106901 29.227814,68.8015493 28.9954884,71.3403239 C28.4693023,77.1149648 27.5877209,86.7822254 28.9151163,94.3317394 C28.9527907,94.5447746 28.977907,94.7666338 29.0080465,94.9847113 C27.128093,94.3809014 22.8482791,92.5530845 21.4141395,88.1121197 C21.3073953,87.7818521 20.9570233,87.6015915 20.6229767,87.7074789 C20.2926977,87.8146268 20.1131163,88.1701056 20.2198605,88.5016338 C21.9968372,94.0077746 27.452093,95.8872746 29.1549767,96.3499014 C29.6146047,102.396824 27.8627442,110.005585 26.0104186,118.018986 C24.536093,124.397437 23.0115349,130.992704 22.5142326,137.229972 C22.268093,140.323394 22.4401395,143.487408 22.8633488,146.595958 C19.8129767,145.108493 11.0762791,140.283056 10.8489767,133.729387 C10.8376744,133.382732 10.5337674,133.118014 10.1997209,133.121796 C9.85311628,133.134401 9.58186047,133.425592 9.5944186,133.774768 C9.87446512,141.823465 20.9896744,147.16069 23.091907,148.098549 C24.1392558,154.552634 26.1724186,160.671408 27.7070233,165.273725 C28.7581395,168.428915 29.6673488,171.152993 29.5015814,171.939585 C29.43,172.279937 29.6472558,172.613986 29.9863256,172.685838 C30.0302791,172.695923 30.0729767,172.699704 30.1169302,172.699704 C30.4070233,172.699704 30.6682326,172.496754 30.7310233,172.199261 C30.955814,171.125261 30.294,169.0655 28.8987907,164.874127 C26.588093,157.94481 23.1295814,147.538859 23.7386512,137.886725 C25.7542326,137.751845 32.2907442,136.841718 34.074,130.741852 C34.1719535,130.407803 33.9810698,130.057366 33.6482791,129.960303 C33.3167442,129.861979 32.9663721,130.053585 32.8684186,130.387634 C31.3287907,135.650486 25.7906512,136.492542 23.8378605,136.624901 C24.3828837,130.685127 25.8270698,124.397437 27.2348372,118.305134 C28.1716744,114.253683 29.0821395,110.304338 29.7025116,106.585676 C30.3291628,106.79493 30.9382326,106.918465 31.5133953,106.918465 C34.6793023,106.918465 37.0151163,104.098585 37.928093,102.284634 C38.083814,101.974535 37.9607442,101.595106 37.651814,101.438796 Z" id="Path" fill="#45D48F"></path>
        </g>
        <g id="chevron_arrow_2_" transform="translate(59.000000, 311.000000)" fill-rule="nonzero">
            <polygon id="Path" fill="#F3F9FF" points="27.4825 100.373741 53.8825 126.95581 53.8825 145.830086 27.4825 119.248017 1.08375 145.830086 1.08375 126.95581"></polygon>
            <polygon id="Path" fill="#E7F4FE" points="27.4825 67.1474138 53.8825 93.7282241 53.8825 112.6025 27.4825 86.020431 1.08375 112.6025 1.08375 93.7282241"></polygon>
            <polygon id="Path" fill="#DCEEFD" points="27.4825 33.9198276 53.8825 60.5018966 53.8825 79.3749138 27.4825 52.7928448 1.08375 79.3749138 1.08375 60.5018966"></polygon>
            <polygon id="Path" fill="#D0E7FE" points="27.4825 0.692241379 53.8825 27.2743103 53.8825 46.1473276 27.4825 19.5665172 1.08375 46.1473276 1.08375 27.2743103"></polygon>
        </g>
        <g id="puzzle_3_" transform="translate(148.000000, 169.500000) rotate(-45.000000) translate(-148.000000, -169.500000) translate(71.000000, 86.000000)" fill-rule="nonzero">
            <path d="M90.9891845,104.378772 L71.3937511,104.378772 C70.2213562,104.378772 69.147382,103.725754 68.6109356,102.686961 C68.0744893,101.648168 68.1658798,100.397091 68.8483348,99.4471983 C70.7956567,96.7392241 72.7354077,93.5091595 72.7354077,91.3884698 C72.7354077,85.6487069 66.898309,80.9962284 59.6979227,80.9962284 C52.4969957,80.9962284 46.6604378,85.6487069 46.6604378,91.3884698 C46.6604378,93.5091595 48.6001888,96.7386853 50.5475107,99.4471983 C51.2310472,100.397091 51.3235193,101.648707 50.787073,102.688578 C50.2506266,103.728448 49.1755708,104.378772 48.0026352,104.378772 L28.4077425,104.378772 L28.4077425,156.338901 C28.4077425,162.078125 33.0773133,166.731142 38.8381631,166.731142 L90.9891845,166.731142 L90.9891845,104.378772 L90.9891845,104.378772 Z" id="Path" fill="#44D690"></path>
            <path d="M90.9886438,104.378233 L90.9886438,123.90194 C90.9886438,125.070043 90.3332275,126.140086 89.290618,126.674569 C88.2480086,127.209052 86.9923348,127.117996 86.0389528,126.438039 C83.32103,124.497845 80.0790987,122.565194 77.950618,122.565194 C72.1897682,122.565194 67.5201974,128.380927 67.5201974,135.554957 C67.5201974,142.728987 72.1897682,148.54472 77.950618,148.54472 C80.0790987,148.54472 83.3204893,146.612069 86.0389528,144.671875 C86.9923348,143.990841 88.2485494,143.898707 89.2922403,144.43319 C90.3359313,144.967672 90.9886438,146.038793 90.9886438,147.207435 L90.9886438,166.730603 L143.139665,166.730603 C148.899974,166.730603 153.570086,162.078125 153.570086,156.338362 L153.570086,104.378233 L90.9886438,104.378233 L90.9886438,104.378233 Z" id="Path" fill="#355AA2"></path>
            <path d="M92.685588,64.3238147 C93.7287382,64.8582974 94.9849528,64.7661638 95.9388755,64.0851293 C98.6567983,62.1449353 101.89873,60.2122845 104.02721,60.2122845 C109.78806,60.2122845 114.457631,66.0280172 114.457631,73.2020474 C114.457631,80.3760776 109.78806,86.1918103 104.02721,86.1918103 C101.89873,86.1918103 98.6573391,84.2596983 95.9388755,82.3189655 C94.9854936,81.6384698 93.7303605,81.5484914 92.6872103,82.0824353 C91.6446009,82.6169181 90.9886438,83.6869612 90.9886438,84.8550647 L90.9886438,104.378233 L110.584077,104.378233 C111.756472,104.378233 112.830446,105.03125 113.366893,106.070043 C113.903339,107.108836 113.811948,108.359914 113.129494,109.309806 C111.182172,112.01778 109.242421,115.247845 109.242421,117.368534 C109.242421,123.108297 115.079519,127.760776 122.279906,127.760776 C129.480292,127.760776 135.317391,123.108297 135.317391,117.368534 C135.317391,115.247845 133.377639,112.018319 131.430318,109.309806 C130.746781,108.359914 130.654309,107.108297 131.190755,106.068427 C131.727202,105.029095 132.802258,104.378233 133.975193,104.378233 L153.570086,104.378233 L153.570086,52.4181034 C153.570086,46.6788793 148.900515,42.0258621 143.139665,42.0258621 L90.9886438,42.0258621 L90.9886438,61.5490302 C90.9886438,62.71875 91.641897,63.7893319 92.685588,64.3238147 Z" id="Path" fill="#1B90FB"></path>
            <path d="M61.9222848,3.66655465 C60.4205793,5.16296491 59.5016413,8.8058609 58.9582645,12.0863492 C58.7677859,13.2375581 57.9465154,14.1855176 56.8317028,14.5420106 C55.7168901,14.8985036 54.4979347,14.6022327 53.6701891,13.776868 L39.8445696,0 L3.0481978,36.6666219 C-1.01606593,40.7165543 -1.01606593,47.2834457 3.0481978,51.3333781 L39.8445696,88 L53.6701891,74.223132 C54.4979347,73.398305 54.7957937,72.1831102 54.4380392,71.0727663 C54.0802847,69.9618846 53.1289707,69.1440478 51.9736881,68.9537031 C48.6821309,68.4117047 45.026344,67.4965447 43.5240989,66.0001344 C39.4592956,61.9496642 40.2832641,54.5627853 45.3641333,49.5003697 C50.4450026,44.4379541 57.8580211,43.616891 61.9222848,47.6668235 C63.4239903,49.1632338 64.3429284,52.8061297 64.8863051,56.0866181 C65.0773233,57.2367516 65.8991334,58.183098 67.0128669,58.539591 C68.1271399,58.8955463 69.3471745,58.6014261 70.1743806,57.7771369 L84,44.0002688 L70.1743806,30.2234008 C69.3471745,29.3991116 69.0520135,28.1833791 69.4092284,27.0730351 C69.7664433,25.9626912 70.7166781,25.1437789 71.8708815,24.9539719 C75.1624387,24.4119735 78.8182256,23.4968135 80.3204707,22.0004033 C84.3852741,17.9499331 83.5613056,10.5630541 78.4804363,5.50063851 C73.399567,0.438222912 65.9870882,-0.383915533 61.9222848,3.66655465 Z" id="Path" fill="#224380"></path>
        </g>
        <g id="编组" transform="translate(1161.000000, 0.000000)" fill="#FFFFFF">
            <path d="M0,0 C8.44422639,0 29.2353811,33.6139283 35.9455403,42.501582 C49.446552,60.3861385 62.1919039,79.5891316 73.7310578,100.268228 C96.7194261,141.467512 116.086679,189.765498 122.248795,243.04052 C136.095276,362.74762 71.5119897,444.297026 39.1547834,542.242471 C4.58607398,646.883141 7.13464002,773.462995 41.5991205,877.463069 C56.8215911,923.397304 75.7240163,944.825004 110.695352,945.629474 C140.843577,946.323453 170.990961,947.016191 201.138346,947.708929 C216.150677,948.055298 235.897021,956.894534 241.317767,937.352621 C245.102791,923.70767 241.317767,895.63937 241.317767,881.036007 L241.317767,666.380362 L241.317767,139.708355 L241.317767,0 L0,0 Z" id="Fill-1"></path>
        </g>
        <g id="plant_23_" transform="translate(1093.000000, 668.000000)" fill-rule="nonzero">
            <path d="M70.5366979,198.128785 C107.987458,194.134299 121.847,176.864393 120.150479,140.746215 C118.453958,104.629299 94.5186458,89.9559346 88.7673646,62.6771028 C83.0160833,35.3970093 71.4845313,1.10953271 63.2666146,0.132990654 C55.0474375,-0.843551402 52.72575,17.0395327 44.3868333,28.5385047 C31.9263542,45.7213551 10.2509688,39.202243 21.9892292,82.0098598 C32.0574375,118.726075 0.9301875,117.09472 0.17771875,154.547757 C-0.557104167,191.020467 32.170875,202.221682 70.5366979,198.128785 Z" id="Path" fill="#CAE5FF"></path>
            <path d="M60.2264896,268.972243 C63.3976979,252.96528 66.2084271,234.308785 67.0503854,218.040654 C67.9339375,201.80028 67.5684167,185.388318 65.2366458,168.929673 C64.7677708,166.206963 64.2636042,163.508224 63.7657396,160.804439 C75.7434792,147.381402 82.4136042,131.321449 83.4156354,114.713925 C81.3082188,130.009299 74.1049375,144.355888 62.9439479,156.254813 C60.7067083,144.106075 58.5879479,132.088551 58.3358646,119.957477 C57.6602813,103.708271 58.6144167,87.4842991 62.2986146,71.7776168 C57.9829479,87.3480374 56.3759167,103.535421 56.4124688,119.819953 C56.3607917,122.408925 56.522125,125.021869 56.6305208,127.628505 C51.7665729,124.054159 47.6374479,119.523458 44.4725417,114.850187 C40.8879167,109.331589 38.4036354,103.433224 37.0360833,97.4528505 C37.7709063,103.442056 39.6350625,109.484252 42.7369479,115.323318 C46.0354583,121.125794 50.2288646,126.713785 56.7389167,131.480421 C57.5644896,143.96729 59.7714792,156.566449 61.4087604,168.881729 C64.5749271,201.368785 60.4117708,237.866729 53.2488229,268.972243 L60.2264896,268.972243 L60.2264896,268.972243 Z" id="Path" fill="#7491C5"></path>
        </g>
    </g>
</svg>