<svg xmlns="http://www.w3.org/2000/svg" width="42" height="33" viewBox="0 0 42 33">
    <g fill="#FFF" fill-rule="evenodd">
        <path d="M27.134 0c1.142-.02 2.032.382 2.465 1.428.784 1.891 2.085 2.321 3.899 2.153 1.815-.17 3.656-.045 5.485-.035 2.03.01 3.014 1.049 3.015 3.175.002 7.714.003 15.428 0 23.142-.001 2.102-.973 3.133-2.95 3.135-6.032.004-12.064.001-18.096.001H3.115c-2.211 0-3.114-.965-3.114-3.326V6.803c0-2.215.953-3.248 3.021-3.257 2.401-.01 4.803-.024 7.204.013.587.01.966-.18 1.268-.697C13.52-.594 13.338.068 16.673.032 20.16-.008 23.648.061 27.134 0zM21.26 5.308l-.546.002c-5.709.172-10.62 5.19-10.66 11.535-.04 6.456 4.824 11.683 10.943 11.71 6.03.026 10.904-5.145 10.946-11.61.04-6.272-4.852-11.496-10.683-11.637l-.273-.002zM7.145 7.946c-1.14-.01-1.881.492-2.084 1.454-.175.83.096 1.522.783 1.925.378.221.859.245 1.293.358 1.46-.08 2.345-1.011 2.083-2.251-.199-.937-.952-1.476-2.075-1.486z"/>
        <path d="M21.05 7c4.944.015 8.94 4.463 8.95 9.96.01 5.596-4.002 10.043-9.055 10.04-4.93-.003-8.93-4.463-8.945-9.969-.014-5.59 4.007-10.046 9.05-10.031zm-.078 1.724c-4.093.035-7.419 3.8-7.402 8.378.015 4.43 3.397 8.158 7.416 8.175 4.075.017 7.46-3.773 7.444-8.335-.017-4.487-3.435-8.253-7.458-8.218zm5.767 8.287c0 3.444-2.603 6.348-5.712 6.373-3.134.024-5.767-2.897-5.767-6.4 0-3.447 2.574-6.32 5.709-6.375 3.097-.053 5.77 2.912 5.77 6.402z"/>
    </g>
</svg>
