<svg xmlns="http://www.w3.org/2000/svg" xmlns:xlink="http://www.w3.org/1999/xlink" width="20" height="20" viewBox="0 0 20 20">
    <defs>
        <path id="a" d="M0 0h20v20H0z"/>
    </defs>
    <g fill="none" fill-rule="evenodd">
        <mask id="b" fill="#fff">
            <use xlink:href="#a"/>
        </mask>
        <use fill="#FFF" fill-opacity=".01" xlink:href="#a"/>
        <path fill="#0C293A" d="M13.52 2c.285.128.548.28.655.602.186.563.375 1.125.559 1.69.152.467.466.702.954.703.796.001 1.592-.018 2.387.01.694.026 1.233.37 1.584.968.134.228.202.495.3.744v9.53c-.011.034-.026.067-.035.102-.141.584-.444 1.055-.984 1.34-.221.117-.467.187-.702.28H1.722c-.029-.012-.056-.027-.086-.034C1.043 17.8.57 17.494.28 16.95c-.118-.221-.188-.467-.28-.702v-9.53c.01-.023.025-.046.03-.07.235-1.03 1.01-1.651 2.061-1.652H4.32a.9.9 0 0 0 .88-.628c.194-.578.38-1.158.579-1.733.038-.113.093-.238.18-.312.144-.126.32-.217.482-.322zM9.99 5.994C7.245 5.98 5.014 8.2 4.992 10.969c-.022 2.737 2.233 5.001 4.986 5.005 2.744.004 4.977-2.227 4.99-4.986.015-2.739-2.221-4.981-4.978-4.994zM9.985 7.92c1.631-.012 2.98 1.328 2.982 2.964a2.97 2.97 0 0 1-2.96 2.97 2.97 2.97 0 0 1-2.974-2.956 2.975 2.975 0 0 1 2.952-2.978zm7.274-.932a.696.696 0 0 0-.687.705.687.687 0 0 0 .7.688.695.695 0 0 0 .693-.702.702.702 0 0 0-.706-.691z" mask="url(#b)"/>
    </g>
</svg>
