<svg xmlns="http://www.w3.org/2000/svg" xmlns:xlink="http://www.w3.org/1999/xlink" width="24" height="24" viewBox="0 0 24 24">
    <defs>
        <path id="a" d="M36.55 32.419c.296-.019.631-.01.957-.065 1.462-.244 2.832-.801 4.196-1.378a1.35 1.35 0 0 1 .706-.075c2.757.437 5.276-.117 7.426-2.034 3.235-2.885 3.268-7.64.113-10.625-3.128-2.96-8.355-3.013-11.535-.116-3.197 2.91-3.322 7.422-.292 10.509.566.577.58.612.25 1.385-.115.272-.248.548-.428.774-.436.544-.904 1.06-1.393 1.625m4.887-.211c-1.119.346-2.179.71-3.257.997-.751.201-1.533.344-2.304.122-.289-.083-.655-.249-.78-.492-.195-.382.087-.727.387-.985.2-.172.416-.325.606-.508.331-.318.678-.625.964-.984.58-.728.565-.801-.025-1.505-3.153-3.763-2.571-8.952 1.34-11.938 3.7-2.825 9.066-2.49 12.411.782a7.768 7.768 0 0 1 1.884 2.871c.122.33.304.488.61.604 2.322.884 4.085 2.445 5.1 4.828 1.244 2.92.6 6.34-1.61 8.652-.316.33-.33.583-.067.888.383.443.78.873 1.185 1.292.262.27.578.485.823.769.435.505.31.992-.298 1.206-.875.31-1.768.21-2.621-.04-1.242-.365-2.456-.833-3.685-1.247-.172-.058-.368-.105-.543-.08-3.032.426-5.77-.24-8.11-2.381A8.087 8.087 0 0 1 41.63 32.6c-.067-.139-.136-.276-.194-.393"/>
        <filter id="b" width="116.7%" height="116.7%" x="-8.3%" y="-8.3%" filterUnits="objectBoundingBox">
            <feGaussianBlur in="SourceAlpha" result="shadowBlurInner1" stdDeviation="1.5"/>
            <feOffset dy="1" in="shadowBlurInner1" result="shadowOffsetInner1"/>
            <feComposite in="shadowOffsetInner1" in2="SourceAlpha" k2="-1" k3="1" operator="arithmetic" result="shadowInnerInner1"/>
            <feColorMatrix in="shadowInnerInner1" values="0 0 0 0 0.465856979 0 0 0 0 0.510301671 0 0 0 0 0.564622962 0 0 0 1 0"/>
        </filter>
    </defs>
    <g fill="none" fill-rule="evenodd" transform="translate(-35 -15)">
        <use fill="#9AA3AE" xlink:href="#a"/>
        <use fill="#000" filter="url(#b)" xlink:href="#a"/>
    </g>
</svg>
