<svg xmlns="http://www.w3.org/2000/svg" xmlns:xlink="http://www.w3.org/1999/xlink" width="24" height="24" viewBox="0 0 24 24">
    <defs>
        <path id="a" d="M32.03 35.732h11.967V34.72H32.03v1.012zm12.076-2.16l-.188-1.034H32.039v1.034h12.067zM32 29.298h16.353v-1.004H32v1.004zm.003-2.164h16.345V26.13H32.003v1.003zM32 31.448h16.324v-1.042H32v1.042zm13.748 6.528l4.258-4.356h-4.258v4.356zM31.647 23.43h16.727v-2.078H31.647v2.078zm-1.55-5.926c.376-.45.68-.808.978-1.173.334-.41.68-.438 1.087-.09.391.333.791.667 1.228.93.173.104.503.103.677 0a7.49 7.49 0 0 0 1.176-.89c.414-.37.761-.33 1.175.01.48.394 1 .998 1.515 1.012.476.013.991-.608 1.448-.999.435-.372.791-.37 1.232-.004.475.395 1.003.986 1.515.994.48.007.992-.608 1.447-1.001.444-.384.8-.342 1.23.024.458.387.968.974 1.46.979.489.004 1.015-.569 1.467-.958.55-.473.979-.403 1.406.143.233.299.494.575.847.98.37-.44.63-.813.956-1.108.19-.173.54-.36.723-.288.175.07.316.465.318.719.023 2.613.014 5.228.014 7.842 0 2.682.017 5.364-.02 8.046a1.72 1.72 0 0 1-.43 1.062 323.16 323.16 0 0 1-5.7 5.835c-.238.237-.651.41-.984.411-5.02.026-10.04.021-15.06.016-1.204-.002-1.798-.609-1.8-1.841-.004-7.092-.005-14.184.01-21.277.002-.28.184-.56.282-.841.282.126.605.2.834.391.323.27.575.627.97 1.076z"/>
        <filter id="b" width="112.5%" height="112.5%" x="-6.2%" y="-6.2%" filterUnits="objectBoundingBox">
            <feGaussianBlur in="SourceAlpha" result="shadowBlurInner1" stdDeviation="1"/>
            <feOffset dy="1" in="shadowBlurInner1" result="shadowOffsetInner1"/>
            <feComposite in="shadowOffsetInner1" in2="SourceAlpha" k2="-1" k3="1" operator="arithmetic" result="shadowInnerInner1"/>
            <feColorMatrix in="shadowInnerInner1" values="0 0 0 0 0 0 0 0 0 0 0 0 0 0 0 0 0 0 0.498961976 0"/>
        </filter>
    </defs>
    <g fill="none" fill-rule="evenodd" transform="translate(-28 -16)">
        <use fill="#0C293A" xlink:href="#a"/>
        <use fill="#000" filter="url(#b)" xlink:href="#a"/>
    </g>
</svg>
