<svg xmlns="http://www.w3.org/2000/svg" width="16" height="16" viewBox="0 0 16 16">
    <path fill="#F5C623" fill-rule="evenodd" d="M7.99.575l.001.831c.003 3.033.013 13.372 0 14.19-.013.717-.922.327-1.17 0-.014-.019-3.032-4-3.22-4.25l-.01-.012H0V4.588h3.591S6.096 1.357 6.623.575c.527-.78 1.35-.71 1.367 0zm3.092 11.511l4.507 2.399c.354.188.51.628.346.978l-.075.159c-.164.349-.588.48-.942.292l-4.507-2.399c-.354-.188-.51-.628-.346-.978l.075-.159c.164-.349.588-.48.942-.292zM15.3 7c.385 0 .701.38.701.845v.31c0 .465-.316.845-.701.845H10.7C10.316 9 10 8.62 10 8.155v-.31c0-.465.316-.845.701-.845H15.3zM14.918.086c.354-.188.778-.057.942.292l.075.16c.164.349.008.789-.346.977l-4.507 2.399c-.354.188-.778.057-.942-.292l-.075-.16c-.164-.349-.008-.789.346-.977z"/>
</svg>
