<svg xmlns="http://www.w3.org/2000/svg" width="16" height="16" viewBox="0 0 16 16">
    <path fill="#D0021B" fill-rule="evenodd" d="M12.267 8.654c-.255 0-.511.017-.764-.005-.206-.018-.266.087-.318.25-.067.212-.133.43-.238.623-.465.858-1.161 1.436-2.117 1.682-.115.03-.18.086-.178.22.005.553.006 1.106 0 1.659-.003.149.06.192.19.163.247-.055.497-.102.738-.176 1.117-.339 2.014-.993 2.706-1.927.51-.688.841-1.454.967-2.305.022-.146-.028-.189-.166-.185-.273.006-.547.001-.82.001m-8.548 0c-.273 0-.547.005-.82-.003-.152-.004-.193.047-.171.198.093.634.308 1.225.627 1.776.616 1.067 1.495 1.845 2.638 2.303.37.148.772.219 1.16.318.126.032.177-.026.176-.16a87.51 87.51 0 0 1 0-1.66c.001-.14-.066-.198-.191-.228a3.139 3.139 0 0 1-1.563-.919 3.092 3.092 0 0 1-.792-1.409c-.036-.148-.101-.234-.281-.221-.26.019-.522.005-.783.005m4.935-4.941v.727c0 .284 0 .284.283.36.54.145 1 .43 1.394.818.418.411.714.9.863 1.472.04.154.098.254.3.246.51-.02 1.02-.006 1.529-.007.245 0 .257-.008.22-.256a4.834 4.834 0 0 0-.77-1.973c-.871-1.308-2.079-2.113-3.638-2.376-.153-.026-.184.037-.182.169.004.273.001.547.001.82m-1.327.02c0-.285-.003-.571 0-.857.003-.132-.046-.181-.18-.151-.223.05-.454.076-.671.144-.922.287-1.727.77-2.385 1.483-.716.774-1.18 1.675-1.352 2.72-.041.249-.027.257.217.258h1.49c.274 0 .278-.005.351-.273.16-.59.476-1.085.918-1.501.405-.38.876-.645 1.416-.784.135-.035.21-.094.2-.256-.016-.26-.004-.522-.004-.783M7.293.893c.039-.185.049-.382.124-.55.13-.29.42-.396.755-.319a.635.635 0 0 1 .48.61c.005.187.006.373 0 .56-.003.107.036.149.144.17.382.079.766.155 1.141.259.736.203 1.402.555 2.015 1.007a6.382 6.382 0 0 1 1.982 2.35c.216.442.363.919.515 1.388.085.264.119.545.168.82.019.106.067.146.174.143.193-.005.386-.006.578.003.358.016.603.278.61.641.007.356-.237.644-.587.671-.197.016-.397.011-.596.006-.115-.003-.157.039-.183.154-.102.459-.194.922-.335 1.37-.268.851-.733 1.595-1.326 2.258A6.584 6.584 0 0 1 9.97 14.35c-.36.113-.736.17-1.108.236-.16.028-.226.09-.212.256.013.16.006.323.002.485a.646.646 0 0 1-.67.646.646.646 0 0 1-.655-.641c-.005-.168-.01-.337.001-.504.012-.16-.057-.215-.206-.241a12.395 12.395 0 0 1-.981-.207c-.827-.217-1.566-.612-2.24-1.132a6.508 6.508 0 0 1-2.162-2.942c-.177-.48-.26-.994-.37-1.495-.029-.127-.08-.163-.2-.159a6.783 6.783 0 0 1-.521 0C.336 8.638.077 8.434.02 8.164c-.073-.35.055-.663.372-.783.167-.062.366-.047.55-.05.402-.007.414 0 .471-.396.092-.638.29-1.24.564-1.82a6.62 6.62 0 0 1 1.886-2.359 6.374 6.374 0 0 1 2.032-1.095c.405-.131.829-.209 1.248-.289.153-.029.2-.088.185-.23C7.32 1.062 7.327.98 7.327.9L7.293.893"/>
</svg>
