<svg xmlns="http://www.w3.org/2000/svg" width="16" height="15" viewBox="0 0 16 15">
    <g fill="none" fill-rule="evenodd">
        <path fill="#36485E" d="M11.767 7.5c0-.967.78-1.75 1.741-1.75.962 0 1.742.783 1.742 1.75s-.78 1.75-1.742 1.75a1.746 1.746 0 0 1-1.741-1.75zm-5.758 0c0-.967.78-1.75 1.741-1.75.962 0 1.741.783 1.741 1.75s-.78 1.75-1.741 1.75A1.746 1.746 0 0 1 6.009 7.5zM.25 7.5c0-.967.78-1.75 1.741-1.75.962 0 1.742.783 1.742 1.75s-.78 1.75-1.742 1.75A1.746 1.746 0 0 1 .25 7.5z"/>
        <path stroke="#979797" stroke-opacity=".01" d="M.5.5h14v14H.5z"/>
    </g>
</svg>
