<svg xmlns="http://www.w3.org/2000/svg" width="42" height="42" viewBox="0 0 42 42">
    <g fill="none" fill-rule="evenodd">
        <circle cx="21" cy="21" r="21" fill="#EDF0F7"/>
        <path fill="#36485E" d="M27.406 26.279c1.281.746 2.148 1.797 1.933 3.53H12.762v-1.302c.781-1.804 2.397-2.53 4.075-3.214 2.067-.842 2.42-1.508 1.23-3.415-1.311-2.104-1.079-4.34-1.017-6.55.068-2.454 2.9-3.938 5.403-2.996 2.432.915 2.968 2.17 2.808 4.782-.123 1.998-.584 3.758-1.56 5.477-.575 1.01-.158 1.883.912 2.382.932.434 1.908.79 2.793 1.306zm1.563-5.307c-.531 1.355-.234 2.016 1.05 2.681 1.291.67 2.395 1.702 3.581 2.575v1.302c-.973.028-1.947.1-2.917.063-.387-.014-.802-.207-1.138-.423-1.298-.832-2.491-1.873-3.872-2.517-1.334-.623-1.646-1.364-.845-2.481 1.322-1.844 1.142-3.986 1.234-6.034.05-1.116-.458-2.257-.715-3.39 3.246-.66 5.013.805 4.649 4.092a16.374 16.374 0 0 1-1.027 4.132zm-15.938.234a16.374 16.374 0 0 1-1.027-4.133c-.364-3.286 1.403-4.752 4.65-4.091-.258 1.132-.766 2.274-.716 3.39.092 2.048-.088 4.19 1.234 6.033.8 1.118.489 1.859-.845 2.481-1.38.645-2.574 1.685-3.872 2.518-.336.215-.751.408-1.138.423-.97.036-1.944-.035-2.917-.063V26.46c1.186-.873 2.29-1.905 3.581-2.574 1.284-.666 1.581-1.327 1.05-2.681z"/>
    </g>
</svg>
