<?xml version="1.0" encoding="UTF-8"?>
<svg width="27px" height="26px" viewBox="0 0 27 26" version="1.1" xmlns="http://www.w3.org/2000/svg" xmlns:xlink="http://www.w3.org/1999/xlink">
    <!-- Generator: Sketch 52.6 (67491) - http://www.bohemiancoding.com/sketch -->
    <title>上</title>
    <desc>Created with Sketch.</desc>
    <g id="Page-1" stroke="none" stroke-width="1" fill="none" fill-rule="evenodd">
        <g id="上" transform="translate(-2.000000, -3.000000)">
            <g id="分组">
                <rect id="矩形" fill="#000000" opacity="0" x="0" y="0" width="32" height="32"></rect>
                <path d="M16.32,12.4 C16.16,12.24 15.84,12.16 15.6,12.16 C15.36,12.08 15.12,12.16 14.88,12.4 L8.8,18.48 C8.48,18.8 8.48,19.28 8.8,19.6 C9.12,19.92 9.6,19.92 9.92,19.6 L15.6,13.92 L21.28,19.6 C21.6,19.92 22.08,19.92 22.4,19.6 C22.72,19.28 22.72,18.8 22.4,18.48 L16.32,12.4 Z M15.6,3.2 C8.56,3.2 2.8,8.96 2.8,16 C2.8,23.04 8.56,28.8 15.6,28.8 C22.64,28.8 28.4,23.04 28.4,16 C28.4,8.96 22.64,3.2 15.6,3.2 Z M15.6,27.2 C9.44,27.2 4.4,22.16 4.4,16 C4.4,9.84 9.44,4.8 15.6,4.8 C21.76,4.8 26.8,9.84 26.8,16 C26.8,22.16 21.76,27.2 15.6,27.2 Z" id="形状" fill="#67C23A" fill-rule="nonzero"></path>
            </g>
        </g>
    </g>
</svg>