<?xml version="1.0" encoding="UTF-8"?>
<svg width="20px" height="25px" viewBox="0 0 20 25" version="1.1" xmlns="http://www.w3.org/2000/svg" xmlns:xlink="http://www.w3.org/1999/xlink">
    <!-- Generator: Sketch 52.6 (67491) - http://www.bohemiancoding.com/sketch -->
    <title>上移一层</title>
    <desc>Created with Sketch.</desc>
    <g id="Page-1" stroke="none" stroke-width="1" fill="none" fill-rule="evenodd">
        <g id="上移一层" transform="translate(-6.000000, -4.000000)">
            <g id="分组">
                <rect id="矩形" fill="#000000" opacity="0" x="0" y="0" width="32" height="32"></rect>
                <g id="分组-44" transform="translate(6.000000, 4.000000)" fill="#999999">
                    <rect id="矩形" x="9.05" y="1.3" width="1.3" height="23" rx="0.65"></rect>
                    <rect id="矩形-copy-45" transform="translate(10.000000, 23.650000) rotate(-90.000000) translate(-10.000000, -23.650000) " x="9.35" y="13.65" width="1.3" height="20" rx="0.65"></rect>
                    <rect id="矩形-copy-47" transform="translate(3.500000, 16.650000) rotate(-90.000000) translate(-3.500000, -16.650000) " x="2.85" y="13.15" width="1.3" height="7" rx="0.65"></rect>
                    <rect id="矩形-copy-50" transform="translate(16.500000, 16.650000) rotate(-90.000000) translate(-16.500000, -16.650000) " x="15.85" y="13.15" width="1.3" height="7" rx="0.65"></rect>
                    <rect id="矩形-copy-48" transform="translate(6.492893, 3.995153) rotate(-135.000000) translate(-6.492893, -3.995153) " x="5.84289322" y="-1.00484669" width="1.3" height="10" rx="0.65"></rect>
                    <rect id="矩形-copy-49" transform="translate(12.907107, 3.995153) rotate(-45.000000) translate(-12.907107, -3.995153) " x="12.2571068" y="-1.00484669" width="1.3" height="10" rx="0.65"></rect>
                </g>
            </g>
        </g>
    </g>
</svg>