<?xml version="1.0" encoding="UTF-8"?>
<svg width="20px" height="24px" viewBox="0 0 20 24" version="1.1" xmlns="http://www.w3.org/2000/svg" xmlns:xlink="http://www.w3.org/1999/xlink">
    <!-- Generator: Sketch 52.6 (67491) - http://www.bohemiancoding.com/sketch -->
    <title>删除</title>
    <desc>Created with Sketch.</desc>
    <g id="Page-1" stroke="none" stroke-width="1" fill="none" fill-rule="evenodd">
        <g id="删除" transform="translate(-6.000000, -4.000000)">
            <g id="分组">
                <rect id="矩形" fill="#000000" opacity="0" x="0" y="0" width="32" height="32"></rect>
                <path d="M12.6666667,24.7272727 C13,24.7272727 13.2222222,24.4545454 13.2222222,24.1818182 L12.3888889,11.0909091 C12.3888889,10.7636364 12.1111111,10.5454546 11.8333333,10.5454546 C11.5,10.5454546 11.2777778,10.8181818 11.2777778,11.0909091 L12.1111111,24.1818182 C12.1111111,24.5090909 12.3888889,24.7272727 12.6666667,24.7272727 Z M25.4444445,7.2727273 L19.8888889,7.2727273 L19.8888889,5.0909091 C19.8888889,4.49090909 19.3888889,4 18.7777778,4 L13.2222222,4.00000003 C12.6111111,4.00000003 12.1111111,4.49090912 12.1111111,5.09090912 L12.1111111,7.2727273 L6.55555555,7.2727273 C6.22222221,7.2727273 6,7.49090911 6,7.81818183 C6,8.14545456 6.22222221,8.36363637 6.55555555,8.36363637 L7.66666667,8.36363637 L8.77777779,25.8181818 C8.94444445,27.0181818 9.77777779,28 11,28 L21,28 C22.2222222,28 23,27.0181818 23.2222222,25.8181818 L24.3333333,8.36363637 L25.4444445,8.36363637 C25.7777778,8.36363637 26,8.14545456 26,7.81818183 C26,7.49090911 25.7777778,7.2727273 25.4444445,7.2727273 Z M13.2222222,5.0909091 L18.7777778,5.0909091 L18.7777778,7.2727273 L13.2222222,7.2727273 L13.2222222,5.0909091 Z M22.1111111,25.8181818 C22.0555556,26.4181818 21.6111111,26.9090909 21,26.9090909 L11,26.9090909 C10.3888889,26.9090909 10,26.4181818 9.88888888,25.8181818 L8.77777776,8.36363637 L23.2222222,8.36363637 L22.1111111,25.8181818 Z M19.3333333,24.7272727 C19.6666667,24.7272727 19.8888889,24.5090909 19.8888889,24.1818182 L20.7222222,11.0909091 C20.7222222,10.7636364 20.5,10.5454546 20.1666667,10.5454546 C19.8333333,10.5454546 19.6111111,10.7636364 19.6111111,11.0909091 L18.7777778,24.1818182 C18.7777778,24.4545455 19,24.7272727 19.3333333,24.7272727 Z M16,24.7272727 C16.3333333,24.7272727 16.5555555,24.5090909 16.5555555,24.1818182 L16.5555555,11.0909091 C16.5555555,10.7636364 16.3333333,10.5454546 16,10.5454546 C15.6666667,10.5454546 15.4444445,10.7636364 15.4444445,11.0909091 L15.4444445,24.1818182 C15.4444445,24.5090909 15.6666667,24.7272727 16,24.7272727 Z" id="形状" fill="#999999" fill-rule="nonzero"></path>
            </g>
        </g>
    </g>
</svg>