<?xml version="1.0" encoding="UTF-8"?>
<svg width="26px" height="26px" viewBox="0 0 26 26" version="1.1" xmlns="http://www.w3.org/2000/svg" xmlns:xlink="http://www.w3.org/1999/xlink">
    <!-- Generator: Sketch 52.6 (67491) - http://www.bohemiancoding.com/sketch -->
    <title>复制</title>
    <desc>Created with Sketch.</desc>
    <g id="Page-1" stroke="none" stroke-width="1" fill="none" fill-rule="evenodd">
        <g id="复制" transform="translate(-3.000000, -3.000000)">
            <g id="分组">
                <rect id="矩形" fill="#000000" opacity="0" x="0" y="0" width="32" height="32"></rect>
                <path d="M21.90625,8.78125 C22.63125,8.78125 23.21875,9.36875 23.21875,10.09375 L23.21875,25.84375 C23.21875,26.56875 22.63125,27.15625 21.90625,27.15625 L6.15625,27.15625 C5.43125,27.15625 4.84375,26.56875 4.84375,25.84375 L4.84375,10.09375 C4.84375,9.36875 5.43125,8.78125 6.15625,8.78125 L21.90625,8.78125 Z M21.90625,7.46875 L6.15625,7.46875 C4.709375,7.46875 3.53125,8.646875 3.53125,10.09375 L3.53125,25.84375 C3.53125,27.290625 4.709375,28.46875 6.15625,28.46875 L21.90625,28.46875 C23.353125,28.46875 24.53125,27.290625 24.53125,25.84375 L24.53125,10.09375 C24.53125,8.646875 23.353125,7.46875 21.90625,7.46875 Z M26.5,23.21875 L25.84375,23.21875 C25.48125,23.21875 25.1875,22.925 25.1875,22.5625 C25.1875,22.2 25.48125,21.90625 25.84375,21.90625 L26.5,21.90625 C26.8625,21.90625 27.15625,21.6125 27.15625,21.25 L27.15625,5.5 C27.15625,5.1375 26.8625,4.84375 26.5,4.84375 L10.75,4.84375 C10.3875,4.84375 10.09375,5.1375 10.09375,5.5 L10.09375,6.14375 C10.09375,6.50625 9.8,6.8 9.4375,6.8 C9.075,6.8 8.78125,6.50625 8.78125,6.14375 L8.78125,5.5 C8.78125,4.415625 9.665625,3.53125 10.75,3.53125 L26.5,3.53125 C27.584375,3.53125 28.46875,4.415625 28.46875,5.5 L28.46875,21.25 C28.46875,22.334375 27.584375,23.21875 26.5,23.21875 Z M18.625,18.625 L9.4375,18.625 C9.075,18.625 8.78125,18.33125 8.78125,17.96875 C8.78125,17.60625 9.075,17.3125 9.4375,17.3125 L18.625,17.3125 C18.9875,17.3125 19.28125,17.60625 19.28125,17.96875 C19.28125,18.33125 18.9875,18.625 18.625,18.625 Z M14.03125,23.21875 C13.66875,23.21875 13.375,22.925 13.375,22.5625 L13.375,13.375 C13.375,13.0125 13.66875,12.71875 14.03125,12.71875 C14.39375,12.71875 14.6875,13.0125 14.6875,13.375 L14.6875,22.5625 C14.6875,22.925 14.39375,23.21875 14.03125,23.21875 Z" id="形状" fill="#999999" fill-rule="nonzero"></path>
            </g>
        </g>
    </g>
</svg>