<?xml version="1.0" encoding="UTF-8"?>
<svg width="24px" height="17px" viewBox="0 0 24 17" version="1.1" xmlns="http://www.w3.org/2000/svg" xmlns:xlink="http://www.w3.org/1999/xlink">
    <!-- Generator: Sketch 52.6 (67491) - http://www.bohemiancoding.com/sketch -->
    <title>最后</title>
    <desc>Created with Sketch.</desc>
    <defs>
        <path d="M1.633,0.352 C1.274,0.352 0.983,0.642 0.983,1.002 C0.983,1.361 1.274,1.652 1.633,1.652 L24.333,1.652 C24.692,1.652 24.982,1.361 24.982,1.002 C24.982,0.642 24.692,0.352 24.333,0.352 L1.633,0.352 Z" id="path-1"></path>
        <path d="M0.518,0.872 C0.242,1.157 0.242,1.619 0.518,1.903 L11.823,13.557 C12.099,13.842 12.547,13.842 12.822,13.557 C13.098,13.272 13.098,12.811 12.822,12.526 L1.518,0.872 C1.38,0.73 1.2,0.659 1.019,0.659 C0.838,0.659 0.656,0.73 0.518,0.872 Z" id="path-3"></path>
        <path d="M12.494,0.872 L1.19,12.526 C0.914,12.811 0.914,13.272 1.19,13.557 C1.466,13.842 1.914,13.842 2.19,13.557 L13.494,1.903 C13.769,1.619 13.769,1.157 13.494,0.872 C13.356,0.73 13.175,0.659 12.994,0.659 C12.813,0.659 12.632,0.73 12.494,0.872 Z" id="path-5"></path>
    </defs>
    <g id="Page-1" stroke="none" stroke-width="1" fill="none" fill-rule="evenodd">
        <g id="最后" transform="translate(12.000000, 9.000000) rotate(-180.000000) translate(-12.000000, -9.000000) translate(-4.000000, -7.000000)">
            <g id="分组">
                <rect id="矩形" fill="#000000" opacity="0" x="0" y="0" width="32" height="32"></rect>
                <g transform="translate(3.000000, 7.000000)">
                    <g transform="translate(0.000000, 0.648000)">
                        <mask id="mask-2" fill="white">
                            <use xlink:href="#path-1"></use>
                        </mask>
                        <g id="Clip-2"></g>
                        <polygon id="Fill-1" fill="#999999" mask="url(#mask-2)" points="-4.017 6.652 29.983 6.652 29.983 -4.648 -4.017 -4.648"></polygon>
                    </g>
                    <g transform="translate(12.000000, 3.648000)">
                        <mask id="mask-4" fill="white">
                            <use xlink:href="#path-3"></use>
                        </mask>
                        <g id="Clip-4"></g>
                        <polygon id="Fill-3" fill="#999999" mask="url(#mask-4)" points="21.0124 13.0417 12.3234 21.9997 -7.6716 1.3877 1.0184 -7.5713"></polygon>
                    </g>
                    <g transform="translate(0.000000, 3.648000)">
                        <mask id="mask-6" fill="white">
                            <use xlink:href="#path-5"></use>
                        </mask>
                        <g id="Clip-6"></g>
                        <polygon id="Fill-5" fill="#999999" mask="url(#mask-6)" points="1.6896 22.0002 -6.9994 13.0422 12.9936 -7.5708 21.6836 1.3872"></polygon>
                    </g>
                </g>
            </g>
        </g>
    </g>
</svg>